<svg width="70" height="66" viewBox="0 0 70 66" fill="none" xmlns="http://www.w3.org/2000/svg">
<path d="M41.3195 25.2641L37.9167 22.9308C37.4306 22.6391 36.75 22.7363 36.4584 23.3196L35.3889 25.2641" fill="#030104"/>
<path d="M63 39.4583L61.9306 38.875C61.5417 38.6806 61.3472 38.2917 61.4444 37.9028C61.7361 36.0556 61.9306 29.6389 52.0139 26.7222C51.8194 26.625 51.625 26.625 51.4306 26.625L32.375 26.7222C31.9861 26.7222 31.5972 26.8194 31.3056 27.0139L21.2917 33.7222C21.0972 33.8194 20.9028 33.9167 20.7083 33.9167C18.8611 33.8194 17.1111 34.0139 15.2639 34.3056C10.0139 35.375 7.875 38.1944 7.09722 39.6528C6.90278 39.9444 6.90278 40.3333 6.90278 40.625C7 42.9583 5.44445 45.5833 7.77778 47.7222L26.6389 47.625L46.4722 47.1389L62.125 46.9444C63 46.8472 64.4583 45.5833 64.8472 44.8056C66.5 42.1806 63.1944 39.5556 63 39.4583Z" fill="#D0CFCE"/>
<path d="M16.8194 41.792C14.6805 41.792 12.9305 43.542 12.9305 45.6809C12.9305 47.8198 14.6805 49.5698 16.8194 49.5698C18.9583 49.5698 20.7083 47.8198 20.7083 45.6809C20.7083 43.542 18.9583 41.792 16.8194 41.792Z" fill="#030104"/>
<path d="M55.5139 41.792C53.375 41.792 51.625 43.542 51.625 45.6809C51.625 47.8198 53.375 49.5698 55.5139 49.5698C57.6528 49.5698 59.4028 47.8198 59.4028 45.6809C59.4028 43.542 57.6528 41.792 55.5139 41.792Z" fill="#030104"/>
<path d="M54.5417 34.889V30.7084C54.5417 29.8334 53.7639 29.0557 52.8889 29.0557H32.2778C32.1806 29.0557 32.0834 29.0557 32.0834 29.1529L23.7223 34.6946C23.5278 34.7918 24.1112 35.0834 24.2084 35.2779C24.3056 35.3751 24.4028 35.4723 24.5 35.4723C29.9445 35.4723 50.9445 35.2779 54.0556 35.3751C54.3473 35.3751 54.5417 35.1807 54.5417 34.889C54.5417 34.9862 54.5417 34.9862 54.5417 34.889Z" fill="#030104"/>
<path d="M8.6528 36.0557L12.5417 37.6112L10.5 40.4307L5.63892 40.5279L8.6528 36.0557Z" fill="#D0CFCE"/>
<path d="M41.4861 25.4926L38.0833 23.1593C37.5972 22.8676 36.9167 22.9648 36.625 23.5482L35.5555 25.4926" stroke="black" stroke-width="2" stroke-miterlimit="10" stroke-linecap="round" stroke-linejoin="round"/>
<path d="M46.4444 46.4922L26.4166 46.8811" stroke="black" stroke-width="2" stroke-linecap="round" stroke-linejoin="round"/>
<path d="M8.04167 46.8813C7.16667 46.6868 6.38889 46.3952 6.29167 45.9091C6.19444 44.9368 6 42.2146 6 40.9507C6 40.4646 6.09722 39.8813 6.38889 39.4924C7.45833 37.548 11.0556 32.8813 20.875 33.2702L30.8889 26.5618C31.375 26.2702 31.9583 26.0757 32.4444 26.0757L51.5 25.9785C51.7917 25.9785 52.0833 25.9785 52.375 26.0757C54.5139 26.6591 63.75 29.9646 62.4861 38.3257L63.5555 38.9091C64.0417 39.1035 64.4305 39.5896 64.5278 40.0757C64.9167 41.4368 64.8194 42.8952 64.3333 44.2563" stroke="black" stroke-width="2" stroke-linecap="round" stroke-linejoin="round"/>
<path d="M24.375 35.7013L53.7361 35.5068V31.1318" stroke="black" stroke-width="2" stroke-linecap="round" stroke-linejoin="round"/>
<path d="M16.9861 50.7701C19.6708 50.7701 21.8472 48.5937 21.8472 45.909C21.8472 43.2242 19.6708 41.0479 16.9861 41.0479C14.3014 41.0479 12.125 43.2242 12.125 45.909C12.125 48.5937 14.3014 50.7701 16.9861 50.7701Z" stroke="black" stroke-width="2" stroke-linecap="round" stroke-linejoin="round"/>
<path d="M55.6806 50.7701C58.3653 50.7701 60.5417 48.5937 60.5417 45.909C60.5417 43.2242 58.3653 41.0479 55.6806 41.0479C52.9959 41.0479 50.8195 43.2242 50.8195 45.909C50.8195 48.5937 52.9959 50.7701 55.6806 50.7701Z" stroke="black" stroke-width="2" stroke-linecap="round" stroke-linejoin="round"/>
<path d="M12.1251 38.6172L10.3751 40.7561L6.77783 40.6589" stroke="black" stroke-width="2" stroke-linecap="round" stroke-linejoin="round"/>
<path d="M23.5972 39.1035H48.8749" stroke="black" stroke-width="2" stroke-miterlimit="10" stroke-linecap="round" stroke-linejoin="round"/>
<path d="M23.4305 38.875H48.7083" stroke="#030104" stroke-width="2" stroke-miterlimit="10" stroke-linecap="round" stroke-linejoin="round"/>
<path d="M36.6077 8.68311L39.4794 5.29492H40.3983L39.9388 8.77724" fill="black"/>
<path d="M37.5841 16.7769L40.3984 18.0004H41.7768L40.2261 16.4004" fill="black"/>
<path d="M47.8073 12.3528L52 2H49.9898L44.9356 8.9646C44.0389 8.81339 43.1375 8.75055 42.2362 8.77639L31.3812 8.02344H31.3238C30.1751 7.83521 28.4521 9.99989 28.4521 9.99989C27.4182 10.941 25.8675 13.0116 28.2798 15.3645C28.2798 15.3645 29.371 16.4939 33.6786 16.7763H33.7934C39.9389 17.2469 47.8648 15.0822 47.8648 15.0822L49.0709 14.5175C50.6216 13.1057 47.8073 12.3528 47.8073 12.3528ZM31.094 10.1881H29.0838C30.8069 8.49404 31.6109 8.68226 31.6109 8.68226L31.094 10.1881ZM33.5063 11.5058C33.5086 11.5686 33.5028 11.6315 33.4892 11.6903C33.4756 11.7491 33.4545 11.8026 33.4274 11.8471C33.4002 11.8915 33.3676 11.9261 33.3317 11.9484C33.2958 11.9706 33.2574 11.9802 33.2191 11.9763H33.0468C33.0085 11.9802 32.9701 11.9706 32.9342 11.9484C32.8983 11.9261 32.8657 11.8915 32.8385 11.8471C32.8114 11.8026 32.7903 11.7491 32.7767 11.6903C32.7631 11.6315 32.7573 11.5686 32.7596 11.5058V11.2234C32.7573 11.1606 32.7631 11.0977 32.7767 11.0388C32.7903 10.98 32.8114 10.9266 32.8385 10.8821C32.8657 10.8376 32.8983 10.8031 32.9342 10.7808C32.9701 10.7585 33.0085 10.749 33.0468 10.7528H33.2191C33.2574 10.749 33.2958 10.7585 33.3317 10.7808C33.3676 10.8031 33.4002 10.8376 33.4274 10.8821C33.4545 10.9266 33.4756 10.98 33.4892 11.0388C33.5028 11.0977 33.5086 11.1606 33.5063 11.2234V11.5058ZM35.459 11.5058C35.4614 11.5686 35.4555 11.6315 35.4419 11.6903C35.4283 11.7491 35.4073 11.8026 35.3801 11.8471C35.353 11.8915 35.3204 11.9261 35.2845 11.9484C35.2486 11.9706 35.2102 11.9802 35.1718 11.9763H34.9995C34.9612 11.9802 34.9228 11.9706 34.8869 11.9484C34.851 11.9261 34.8184 11.8915 34.7913 11.8471C34.7641 11.8026 34.743 11.7491 34.7294 11.6903C34.7158 11.6315 34.71 11.5686 34.7124 11.5058V11.2234C34.71 11.1606 34.7158 11.0977 34.7294 11.0388C34.743 10.98 34.7641 10.9266 34.7913 10.8821C34.8184 10.8376 34.851 10.8031 34.8869 10.7808C34.9228 10.7585 34.9612 10.749 34.9995 10.7528H35.1718C35.2102 10.749 35.2486 10.7585 35.2845 10.7808C35.3204 10.8031 35.353 10.8376 35.3801 10.8821C35.4073 10.9266 35.4283 10.98 35.4419 11.0388C35.4555 11.0977 35.4614 11.1606 35.459 11.2234V11.5058ZM38.6179 13.3881C38.6056 13.8195 38.4904 14.2258 38.2972 14.5195C38.104 14.8132 37.8481 14.9709 37.5846 14.9585C37.3211 14.9462 37.0711 14.7649 36.8884 14.4536C36.7057 14.1423 36.6049 13.7258 36.6077 13.294V11.7881C36.6091 11.5692 36.6371 11.3529 36.6901 11.152C36.743 10.951 36.8199 10.7693 36.9162 10.6176C37.0125 10.4658 37.1263 10.347 37.2509 10.2681C37.3755 10.1892 37.5085 10.1518 37.642 10.1581C37.7756 10.1643 37.907 10.2141 38.0287 10.3045C38.1503 10.395 38.2598 10.5242 38.3507 10.6847C38.4415 10.8452 38.5119 11.0338 38.5578 11.2394C38.6037 11.445 38.6241 11.6635 38.6179 11.8822V13.3881ZM40.7429 11.5058C40.7453 11.5686 40.7395 11.6315 40.7259 11.6903C40.7123 11.7491 40.6912 11.8026 40.664 11.8471C40.6369 11.8915 40.6043 11.9261 40.5684 11.9484C40.5325 11.9706 40.4941 11.9802 40.4558 11.9763H40.2835C40.2452 11.9802 40.2068 11.9706 40.1708 11.9484C40.1349 11.9261 40.1023 11.8915 40.0752 11.8471C40.048 11.8026 40.027 11.7491 40.0134 11.6903C39.9998 11.6315 39.994 11.5686 39.9963 11.5058V11.2234C39.994 11.1606 39.9998 11.0977 40.0134 11.0388C40.027 10.98 40.048 10.9266 40.0752 10.8821C40.1023 10.8376 40.1349 10.8031 40.1708 10.7808C40.2068 10.7585 40.2452 10.749 40.2835 10.7528H40.4558C40.4941 10.749 40.5325 10.7585 40.5684 10.7808C40.6043 10.8031 40.6369 10.8376 40.664 10.8821C40.6912 10.9266 40.7123 10.98 40.7259 11.0388C40.7395 11.0977 40.7453 11.1606 40.7429 11.2234V11.5058ZM42.6383 11.5058C42.6406 11.5686 42.6348 11.6315 42.6212 11.6903C42.6076 11.7491 42.5865 11.8026 42.5594 11.8471C42.5322 11.8915 42.4996 11.9261 42.4637 11.9484C42.4278 11.9706 42.3894 11.9802 42.3511 11.9763H42.1788C42.1405 11.9802 42.1021 11.9706 42.0662 11.9484C42.0303 11.9261 41.9977 11.8915 41.9705 11.8471C41.9434 11.8026 41.9223 11.7491 41.9087 11.6903C41.8951 11.6315 41.8893 11.5686 41.8916 11.5058V11.2234C41.8893 11.1606 41.8951 11.0977 41.9087 11.0388C41.9223 10.98 41.9434 10.9266 41.9705 10.8821C41.9977 10.8376 42.0303 10.8031 42.0662 10.7808C42.1021 10.7585 42.1405 10.749 42.1788 10.7528H42.3511C42.3894 10.749 42.4278 10.7585 42.4637 10.7808C42.4996 10.8031 42.5322 10.8376 42.5594 10.8821C42.5865 10.9266 42.6076 10.98 42.6212 11.0388C42.6348 11.0977 42.6406 11.1606 42.6383 11.2234V11.5058ZM44.5336 11.5058C44.5359 11.5686 44.5301 11.6315 44.5165 11.6903C44.5029 11.7491 44.4819 11.8026 44.4547 11.8471C44.4276 11.8915 44.3949 11.9261 44.359 11.9484C44.3231 11.9706 44.2847 11.9802 44.2464 11.9763H44.0741C44.0358 11.9802 43.9974 11.9706 43.9615 11.9484C43.9256 11.9261 43.893 11.8915 43.8659 11.8471C43.8387 11.8026 43.8176 11.7491 43.804 11.6903C43.7904 11.6315 43.7846 11.5686 43.7869 11.5058V11.2234C43.7846 11.1606 43.7904 11.0977 43.804 11.0388C43.8176 10.98 43.8387 10.9266 43.8659 10.8821C43.893 10.8376 43.9256 10.8031 43.9615 10.7808C43.9974 10.7585 44.0358 10.749 44.0741 10.7528H44.2464C44.2847 10.749 44.3231 10.7585 44.359 10.7808C44.3949 10.8031 44.4276 10.8376 44.4547 10.8821C44.4819 10.9266 44.5029 10.98 44.5165 11.0388C44.5301 11.0977 44.5359 11.1606 44.5336 11.2234V11.5058Z" fill="black"/>
</svg>
