<svg width="50" height="50" viewBox="0 0 50 50" fill="none" xmlns="http://www.w3.org/2000/svg">
<circle cx="25" cy="25" r="25" fill="#FA8D1D"/>
<path d="M24.5 27.6445C23.9482 27.6445 23.5039 28.0533 23.5039 28.5609V34.585C23.5039 35.0926 23.9482 35.5014 24.5 35.5014C25.0518 35.5014 25.4961 35.0926 25.4961 34.585V28.5609C25.4961 28.0578 25.0518 27.6445 24.5 27.6445Z" fill="white"/>
<path d="M30.7305 19.5182H25.4961V19.0016C26.4873 18.7275 27.2734 18.0672 27.6152 17.2361H30.3984C30.9502 17.2361 31.3945 16.8273 31.3945 16.3197C31.3945 15.8121 30.9502 15.4033 30.3984 15.4033H27.6152C27.166 14.2937 25.9258 13.4941 24.4658 13.4941C23.0059 13.4941 21.7656 14.2937 21.3164 15.4033H18.5332C17.9814 15.4033 17.5371 15.8121 17.5371 16.3197C17.5371 16.8273 17.9814 17.2361 18.5332 17.2361H21.3164C21.6631 18.0896 22.4785 18.759 23.5039 19.024V19.5227H18.2695C17.7178 19.5227 17.2734 19.9314 17.2734 20.4391V26.4271C17.2734 29.0551 19.0264 31.3102 21.5117 32.2625V28.5654C21.5117 27.0471 22.8545 25.8162 24.5 25.8162C26.1504 25.8162 27.4883 27.0516 27.4883 28.5654V32.2625C29.9736 31.3102 31.7266 29.0551 31.7266 26.4271V20.4391C31.7266 19.9314 31.2822 19.5182 30.7305 19.5182Z" fill="white"/>
</svg>
