<svg width="75" height="75" viewBox="0 0 75 75" fill="none" xmlns="http://www.w3.org/2000/svg">
<g id="Frame 25">
<rect width="75" height="75" rx="13" fill="white"/>
<g id="Group">
<path id="Vector" d="M61.9917 26.3253C61.539 21.9944 51.0953 22.3944 51.5678 24.6967C52.0403 26.999 48.0253 28.7717 48.0253 28.7717L42.2531 30.2021C38.7417 26.6495 37.1543 25.5362 35.9376 24.5418C31.2095 20.6829 26.2522 28.6348 26.2522 28.6348C26.2522 28.6348 21.6628 27.9214 27.0982 21C8.183 33.3655 17.1865 35.4265 17.1865 35.4265H22.5031L21.6543 37.1739C20.8139 36.7019 19.8802 36.4353 18.8955 36.4353C15.087 36.4353 12 40.3698 12 45.2159C12 50.0655 15.087 54 18.8955 54C22.704 54 25.791 50.0655 25.791 45.2159C25.791 42.4956 24.8177 40.0671 23.2897 38.4566L24.0197 36.9505L31.3736 47.3849H32.0131H45.3485H47.001C47.7593 51.1824 50.4586 54 53.6758 54C57.4843 54 60.5685 50.0655 60.5685 45.2159C60.5685 40.3698 57.4843 36.4353 53.6758 36.4353C50.1955 36.4353 47.3264 39.7213 46.8538 43.9872H46.7888C46.7888 43.9872 46.1861 41.1661 45.1137 37.6711C48.6959 36.1471 62.385 30.0904 61.9917 26.3253ZM18.8983 50.7357C16.5074 50.7357 14.5664 48.2604 14.5664 45.2159C14.5664 42.1713 16.5102 39.6996 18.8983 39.6996C19.3878 39.6996 19.8547 39.8041 20.2933 39.9987L18.7993 43.0829C18.788 43.1045 18.7682 43.1189 18.7569 43.1441L18.1315 44.452C18.1287 44.4664 18.1315 44.4736 18.1259 44.4808L18.0806 44.5745L18.0948 44.5889C17.8967 45.1438 18.0353 45.814 18.4569 46.1418C18.8757 46.4661 19.3992 46.3184 19.6963 45.8428L19.7161 45.8608L19.7727 45.7455C19.7755 45.7383 19.784 45.7311 19.784 45.7311L20.0641 45.1474L21.9316 41.2814C22.7351 42.283 23.2331 43.6774 23.2331 45.2195C23.2303 48.2604 21.2864 50.7357 18.8983 50.7357ZM53.6786 39.696C56.0667 39.696 58.0106 42.1713 58.0106 45.2122C58.0106 48.2604 56.0639 50.7321 53.6786 50.7321C51.8904 50.7321 50.3511 49.3449 49.6918 47.3777H54.9519V47.3488H55.0736C55.8064 47.3632 56.4091 46.6282 56.4176 45.6915C56.4317 44.7619 55.846 43.998 55.116 43.98L53.4664 43.9548C53.3815 43.9512 53.2995 43.962 53.2174 43.98H49.457C49.8927 41.5336 51.6159 39.696 53.6786 39.696Z" fill="#030104"/>
</g>
</g>
</svg>
