<svg width="50" height="30" viewBox="0 0 50 30" fill="none" xmlns="http://www.w3.org/2000/svg">
<path d="M25.3015 4.93457H40.3288L42.0008 8.00319H25.3015V4.93457Z" fill="black"/>
<path d="M0.459961 24.6188C0.459961 27.5917 2.70664 29.9992 5.48002 29.9992C8.25424 29.9992 10.5018 27.5917 10.5018 24.6188C10.5018 21.6468 8.25424 19.2383 5.48002 19.2383C2.70664 19.2383 0.459961 21.6468 0.459961 24.6188ZM3.32267 24.6188C3.32267 23.3427 4.2901 22.3051 5.48086 22.3051C6.67246 22.3051 7.6399 23.3418 7.6399 24.6188C7.6399 25.8957 6.67246 26.9324 5.48086 26.9324C4.29095 26.9324 3.32267 25.8948 3.32267 24.6188Z" fill="black"/>
<path d="M10.5103 20.0717C13.5239 23.6867 12.0719 24.2971 33.6522 24.2971C33.6522 24.2971 29.6754 24.0741 32.2676 21.2953C34.4654 21.2953 33.2064 21.2953 35.775 21.2953C35.094 22.2138 34.6727 23.3579 34.6727 24.6195C34.6727 27.5924 36.9202 30 39.6927 30C42.467 30 44.7145 27.5924 44.7145 24.6195C44.7145 23.3588 44.2948 22.2129 43.6156 21.2953C44.6976 21.2953 45.612 21.2953 46.2626 21.2953C51.988 21.2953 42.4451 9.02536 42.4451 9.02536H25.2697C25.2697 9.02536 35.7657 21.2953 25.2697 21.2953C24.3966 21.2953 23.7966 21.2953 23.3913 21.2953C23.3913 21.2953 7.82714 19.8757 17.2883 3.51935L18.828 1.86674H21.6148V0.844468C21.6148 0.844468 17.3953 -1.05559 17.038 0.844468C16.6832 2.74362 7.67208 14.3056 7.67208 14.3056C4.53381 13.5154 2.09415 15.5852 0 19.2381C3.81245 17.9775 7.4968 16.4567 10.5103 20.0717ZM37.5362 24.6186C37.5362 23.3426 38.5028 22.305 39.6944 22.305C40.886 22.305 41.8543 23.3417 41.8543 24.6186C41.8543 25.8956 40.886 26.9323 39.6944 26.9323C38.5037 26.9323 37.5362 25.8947 37.5362 24.6186Z" fill="black"/>
<path d="M50 17.7998H48.5691V20.6788H50V17.7998Z" fill="black"/>
<path d="M14.0591 2.87996V0.000976562L16.1608 0.661119L15.4892 2.87996H14.0591Z" fill="black"/>
</svg>
