<svg width="50" height="50" viewBox="0 0 50 50" fill="none" xmlns="http://www.w3.org/2000/svg">
<circle cx="25" cy="25" r="25" fill="#FA8D1D"/>
<path d="M33.772 22.155L32.404 18.051C32.2056 17.4535 31.8238 16.9337 31.3131 16.5655C30.8024 16.1973 30.1886 15.9994 29.559 16H20.441C19.8114 15.9994 19.1976 16.1973 18.6869 16.5655C18.1762 16.9337 17.7944 17.4535 17.596 18.051L16.228 22.155C15.8642 22.3072 15.5536 22.5636 15.3351 22.8918C15.1166 23.2201 15 23.6057 15 24V29C15 29.738 15.404 30.376 16 30.723V33C16 33.2652 16.1054 33.5196 16.2929 33.7071C16.4804 33.8946 16.7348 34 17 34H18C18.2652 34 18.5196 33.8946 18.7071 33.7071C18.8946 33.5196 19 33.2652 19 33V31H31V33C31 33.2652 31.1054 33.5196 31.2929 33.7071C31.4804 33.8946 31.7348 34 32 34H33C33.2652 34 33.5196 33.8946 33.7071 33.7071C33.8946 33.5196 34 33.2652 34 33V30.723C34.3034 30.549 34.5556 30.2981 34.7311 29.9956C34.9067 29.6932 34.9994 29.3497 35 29V24C35 23.6057 34.8834 23.2201 34.6649 22.8918C34.4464 22.5636 34.1358 22.3072 33.772 22.155ZM20.441 18H29.558C29.989 18 30.371 18.274 30.507 18.684L31.613 22H18.387L19.492 18.684C19.5583 18.4848 19.6857 18.3115 19.856 18.1888C20.0264 18.066 20.231 18 20.441 18ZM18.5 28C18.303 27.9999 18.1078 27.9611 17.9258 27.8856C17.7438 27.8101 17.5784 27.6995 17.4391 27.5602C17.2998 27.4208 17.1894 27.2553 17.114 27.0733C17.0387 26.8912 16.9999 26.696 17 26.499C17.0001 26.302 17.0389 26.1068 17.1144 25.9248C17.1899 25.7428 17.3005 25.5774 17.4398 25.4381C17.5792 25.2988 17.7447 25.1884 17.9267 25.113C18.1088 25.0377 18.304 24.9989 18.501 24.999C18.899 24.9991 19.2806 25.1573 19.5619 25.4388C19.8432 25.7203 20.0011 26.102 20.001 26.5C20.0009 26.898 19.8427 27.2796 19.5612 27.5609C19.2797 27.8422 18.898 28.0001 18.5 28ZM31.5 28C31.303 27.9999 31.1078 27.9611 30.9258 27.8856C30.7438 27.8101 30.5784 27.6995 30.4391 27.5602C30.2998 27.4208 30.1894 27.2553 30.114 27.0733C30.0387 26.8912 29.9999 26.696 30 26.499C30.0001 26.302 30.0389 26.1068 30.1144 25.9248C30.1899 25.7428 30.3005 25.5774 30.4398 25.4381C30.5792 25.2988 30.7447 25.1884 30.9267 25.113C31.1088 25.0377 31.304 24.9989 31.501 24.999C31.899 24.9991 32.2806 25.1573 32.5619 25.4388C32.8432 25.7203 33.0011 26.102 33.001 26.5C33.0009 26.898 32.8427 27.2796 32.5612 27.5609C32.2797 27.8422 31.898 28.0001 31.5 28Z" fill="white"/>
</svg>
