<svg width="105" height="59" viewBox="0 0 105 59" fill="none" xmlns="http://www.w3.org/2000/svg">
<g filter="url(#filter0_d_833_5628)">
<path fill-rule="evenodd" clip-rule="evenodd" d="M99.915 31.0242L100.016 25.0597L100.002 25.0596L100.011 24.5394C100.27 21.3021 98.5533 12.834 98.5533 12.834C97.3387 9.49003 93.1958 7.90446 89.7714 7.15701C88.9492 6.15071 87.5901 5.47348 86.0343 5.44162L76.8239 5.25403C75.5875 5.22862 74.4541 5.61879 73.6142 6.27046L72.2675 6.24283L68.1738 6.15878L66.7005 2.236L65.305 2.20704L65.7922 6.11024L41.3247 5.60934C40.5065 4.92393 39.3916 4.48662 38.1517 4.46072L15.6459 3.99996C14.2663 3.97166 13.0194 4.45978 12.1567 5.24975C9.42503 5.60405 5.23874 6.60179 4.91375 9.41241L4.62579 26.4251L4.33835 43.4359C4.56781 46.2581 8.718 47.4248 11.435 47.8917C12.2709 48.7176 13.4996 49.2565 14.8799 49.2848L37.3851 49.7455C38.6256 49.7708 39.7549 49.3802 40.5947 48.7285L65.2237 49.2323L64.6568 52.7911L66.0517 52.8201L67.5214 49.2795L71.5375 49.3614L72.9068 49.4134C73.7275 50.087 74.8286 50.5144 76.0578 50.5395L85.2683 50.727C86.5217 50.7525 87.6689 50.3526 88.5123 49.6867C92.0465 49.1344 96.627 47.7525 98.0216 44.2833C98.0216 44.2833 100.023 35.8924 99.8738 32.6468L99.9015 31.0241L99.915 31.0242Z" fill="#FA8D1D"/>
</g>
<rect x="6.94531" y="18.5059" width="6.21443" height="15.8152" rx="1" fill="#242E42"/>
<rect x="6.94531" y="9.01367" width="6.21443" height="12.6522" rx="1" fill="black" fill-opacity="0.9"/>
<rect x="97.0547" y="21.668" width="3.10721" height="15.8152" rx="1" fill="#242E42"/>
<rect x="6.94531" y="31.1582" width="6.21443" height="12.6522" rx="1" fill="black" fill-opacity="0.9"/>
<path fill-rule="evenodd" clip-rule="evenodd" d="M76.2776 29.7496L76.2524 29.7483C75.7737 35.9927 74.7379 40.0145 73.5348 42.5935C72.2086 45.435 70.6824 46.5257 69.4882 46.9048C69.4706 46.9109 69.453 46.9134 69.4371 46.9189C69.2107 46.9882 68.999 47.0324 68.799 47.0563C67.9748 47.1619 67.4276 46.952 67.4276 46.952L53.5537 40.9795C55.5468 39.6906 56.6091 30.7464 56.9458 27.3657C56.9569 23.9653 56.8126 14.9579 54.9644 13.455L69.3691 9.06694C69.3691 9.06694 69.9351 8.91848 70.7434 9.11724C70.9358 9.16203 71.1364 9.22889 71.3511 9.31846C71.3698 9.32582 71.3927 9.33441 71.4132 9.34299C72.5617 9.85584 73.9677 11.1116 74.9983 14.0856C75.9286 16.7854 76.5474 20.8986 76.3849 27.1589L76.4101 27.1602C76.389 27.6012 76.3656 28.0313 76.3421 28.4546C76.3222 28.8772 76.3022 29.3079 76.2776 29.7496V29.7496Z" fill="#242E42"/>
<path fill-rule="evenodd" clip-rule="evenodd" d="M33.9665 13.295L33.0562 31.0558L32.5054 41.7937L32.4714 42.4666C29.6049 45.9498 23.1228 45.7658 18.8474 45.1873L20.7109 8.82846C25.0209 8.73153 31.4854 9.27321 33.9789 13.0558L33.9665 13.295Z" fill="#242E42"/>
<path fill-rule="evenodd" clip-rule="evenodd" d="M32.3924 5.85352C35.975 5.85352 62.875 5.85352 62.875 5.85352C62.875 5.85352 49.7283 12.1796 46.162 12.1796C42.5956 12.1796 28.8099 5.85352 32.3924 5.85352Z" fill="#242E42"/>
<path fill-rule="evenodd" clip-rule="evenodd" d="M32.4086 50.1366C35.9912 50.1366 62.8911 50.1366 62.8911 50.1366C62.8911 50.1366 49.2969 43.8105 45.7305 43.8105C42.1642 43.8105 28.826 50.1366 32.4086 50.1366Z" fill="#242E42"/>
<defs>
<filter id="filter0_d_833_5628" x="0.338379" y="0.207031" width="103.699" height="58.6133" filterUnits="userSpaceOnUse" color-interpolation-filters="sRGB">
<feFlood flood-opacity="0" result="BackgroundImageFix"/>
<feColorMatrix in="SourceAlpha" type="matrix" values="0 0 0 0 0 0 0 0 0 0 0 0 0 0 0 0 0 0 127 0" result="hardAlpha"/>
<feOffset dy="2"/>
<feGaussianBlur stdDeviation="2"/>
<feColorMatrix type="matrix" values="0 0 0 0 0 0 0 0 0 0 0 0 0 0 0 0 0 0 0.2 0"/>
<feBlend mode="normal" in2="BackgroundImageFix" result="effect1_dropShadow_833_5628"/>
<feBlend mode="normal" in="SourceGraphic" in2="effect1_dropShadow_833_5628" result="shape"/>
</filter>
</defs>
</svg>
