<svg width="59" height="105" viewBox="0 0 59 105" fill="none" xmlns="http://www.w3.org/2000/svg">
<g filter="url(#filter0_d_833_5628)">
<path fill-rule="evenodd" clip-rule="evenodd" d="M33.0244 3.08498L27.0599 2.9838L27.0598 2.99789L26.5395 2.98874C23.3022 2.73003 14.8341 4.44673 14.8341 4.44673C11.4901 5.66133 9.90458 9.80418 9.15713 13.2287C8.15083 14.0508 7.4736 15.4099 7.44174 16.9657L7.25416 26.1762C7.22874 27.4125 7.61892 28.5459 8.27058 29.3858L8.24295 30.7325L8.1589 34.8262L4.23613 36.2995L4.20716 37.695L8.11037 37.2078L7.60946 61.6753C6.92405 62.4935 6.48674 63.6084 6.46084 64.8483L6.00008 87.3541C5.97178 88.7337 6.4599 89.9806 7.24988 90.8433C7.60418 93.575 8.60192 97.7613 11.4125 98.0862L28.4252 98.3742L45.436 98.6616C48.2582 98.4322 49.4249 94.282 49.8918 91.565C50.7178 90.7291 51.2566 89.5004 51.2849 88.1201L51.7457 65.6149C51.7709 64.3744 51.3803 63.2451 50.7286 62.4053L51.2324 37.7763L54.7913 38.3432L54.8202 36.9483L51.2796 35.4786L51.3615 31.4625L51.4135 30.0932C52.0872 29.2725 52.5145 28.1714 52.5396 26.9422L52.7272 17.7317C52.7526 16.4783 52.3527 15.3312 51.6868 14.4877C51.1346 10.9535 49.7527 6.37303 46.2834 4.97838C46.2834 4.97838 37.8925 2.97726 34.6469 3.12615L33.0242 3.09848L33.0244 3.08498Z" fill="#FA8D1D"/>
</g>
<rect x="20.5063" y="96.0547" width="6.21443" height="15.8152" rx="1" transform="rotate(-90 20.5063 96.0547)" fill="#242E42"/>
<rect x="11.0142" y="96.0547" width="6.21443" height="12.6522" rx="1" transform="rotate(-90 11.0142 96.0547)" fill="black" fill-opacity="0.9"/>
<rect x="23.6683" y="5.94531" width="3.10721" height="15.8152" rx="1" transform="rotate(-90 23.6683 5.94531)" fill="#242E42"/>
<rect x="33.1583" y="96.0547" width="6.21443" height="12.6522" rx="1" transform="rotate(-90 33.1583 96.0547)" fill="black" fill-opacity="0.9"/>
<path fill-rule="evenodd" clip-rule="evenodd" d="M31.75 26.7214L31.7488 26.7467C37.9932 27.2253 42.015 28.2612 44.5939 29.4642C47.4355 30.7904 48.5262 32.3166 48.9053 33.5109C48.9114 33.5285 48.9139 33.5461 48.9194 33.5619C48.9887 33.7883 49.0329 34.0001 49.0568 34.2001C49.1623 35.0242 48.9525 35.5714 48.9525 35.5714L42.9799 49.4453C41.6911 47.4522 32.7469 46.3899 29.3662 46.0532C25.9658 46.0421 16.9584 46.1864 15.4555 48.0346L11.0674 33.6299C11.0674 33.6299 10.919 33.0639 11.1177 32.2556C11.1625 32.0632 11.2294 31.8626 11.3189 31.648C11.3263 31.6292 11.3349 31.6063 11.3435 31.5858C11.8563 30.4373 13.1121 29.0313 16.0861 28.0007C18.7859 27.0704 22.8991 26.4516 29.1594 26.6141L29.1607 26.5889C29.6017 26.61 30.0318 26.6335 30.455 26.6569C30.8777 26.6769 31.3084 26.6968 31.75 26.7214Z" fill="#242E42"/>
<path fill-rule="evenodd" clip-rule="evenodd" d="M15.2947 69.0332L33.0554 69.9436L43.7933 70.4943L44.4663 70.5284C47.9495 73.3949 47.7654 79.8769 47.1869 84.1523L10.8281 82.2888C10.7312 77.9788 11.2728 71.5144 15.0554 69.0209L15.2947 69.0332Z" fill="#242E42"/>
<path fill-rule="evenodd" clip-rule="evenodd" d="M7.85437 70.6083C7.85437 67.0257 7.85437 40.1257 7.85437 40.1257C7.85437 40.1257 14.1805 53.2724 14.1805 56.8388C14.1805 60.4051 7.85437 74.1909 7.85437 70.6083Z" fill="#242E42"/>
<path fill-rule="evenodd" clip-rule="evenodd" d="M52.1365 70.5919C52.1365 67.0093 52.1365 40.1094 52.1365 40.1094C52.1365 40.1094 45.8104 53.7036 45.8104 57.27C45.8104 60.8363 52.1365 74.1745 52.1365 70.5919Z" fill="#242E42"/>
<defs>
<filter id="filter0_d_833_5628" x="0.207153" y="0.962891" width="58.613" height="103.699" filterUnits="userSpaceOnUse" color-interpolation-filters="sRGB">
<feFlood flood-opacity="0" result="BackgroundImageFix"/>
<feColorMatrix in="SourceAlpha" type="matrix" values="0 0 0 0 0 0 0 0 0 0 0 0 0 0 0 0 0 0 127 0" result="hardAlpha"/>
<feOffset dy="2"/>
<feGaussianBlur stdDeviation="2"/>
<feColorMatrix type="matrix" values="0 0 0 0 0 0 0 0 0 0 0 0 0 0 0 0 0 0 0.2 0"/>
<feBlend mode="normal" in2="BackgroundImageFix" result="effect1_dropShadow_833_5628"/>
<feBlend mode="normal" in="SourceGraphic" in2="effect1_dropShadow_833_5628" result="shape"/>
</filter>
</defs>
</svg>
