<svg width="32" height="39" viewBox="0 0 32 39" fill="none" xmlns="http://www.w3.org/2000/svg">
<path d="M16.25 38.59C15.4831 37.5972 14.7723 36.5088 14.125 35.3362C13.1536 33.5753 12 30.9527 12 28.4536C11.9996 27.1773 12.2486 25.9295 12.7156 24.8682C13.1826 23.8068 13.8466 22.9795 14.6235 22.4911C15.4004 22.0026 16.2553 21.875 17.08 22.1242C17.9047 22.3735 18.6622 22.9885 19.2566 23.8914C19.6523 24.4893 19.9659 25.2004 20.1793 25.9835C20.3928 26.7666 20.5018 27.6062 20.5 28.4536C20.5 30.9527 19.3464 33.5753 18.375 35.3362C17.7277 36.5088 17.0168 37.5972 16.25 38.59ZM16.25 25.6892C15.7669 25.6892 15.3036 25.9804 14.962 26.4989C14.6205 27.0173 14.4286 27.7205 14.4286 28.4536C14.4286 29.1868 14.6205 29.89 14.962 30.4084C15.3036 30.9269 15.7669 31.2181 16.25 31.2181C16.7331 31.2181 17.1963 30.9269 17.5379 30.4084C17.8795 29.89 18.0714 29.1868 18.0714 28.4536C18.0714 27.7205 17.8795 27.0173 17.5379 26.4989C17.1963 25.9804 16.7331 25.6892 16.25 25.6892Z" fill="#FA8D1D"/>
<circle cx="16" cy="16" r="16" fill="#FA8D1D"/>
<path d="M9.1393 15.3419C9.21556 15.1868 9.36136 14.9312 9.61868 14.4818C9.73592 14.2754 9.86771 14.0473 10.0026 13.813H8.82075C8.36733 13.813 8 14.1551 8 14.5779C8 14.9998 8.36733 15.3419 8.82075 15.3419H9.1393Z" fill="white"/>
<path d="M24.1791 13.813H22.9973C23.1327 14.0473 23.264 14.2754 23.3812 14.4818C23.6386 14.9311 23.7838 15.1868 23.8606 15.3419H24.1792C24.6326 15.3419 24.9999 14.9998 24.9999 14.5779C24.9999 14.1551 24.6326 13.813 24.1791 13.813Z" fill="white"/>
<path d="M9.30786 21.9693C9.30786 22.5385 9.80385 23 10.4145 23C11.0256 23 11.5205 22.5385 11.5205 21.9693V20.9946H9.30786V21.9693Z" fill="white"/>
<path d="M21.4785 21.9693C21.4785 22.5385 21.9745 23 22.5856 23C23.1968 23 23.6922 22.5385 23.6922 21.9693V20.9946H21.4785V21.9693Z" fill="white"/>
<path d="M23.5349 15.5343C23.5909 15.5492 21.4867 11.9522 21.386 11.7579C21.1204 11.2423 20.4636 10.9321 19.8234 10.9321C19.0836 10.9321 17.0229 10.9321 17.0229 10.9321C17.0229 10.9321 13.9163 10.9321 13.176 10.9321C12.5353 10.9321 11.8801 11.2423 11.6139 11.7579C11.5133 11.9522 9.40955 15.5493 9.46507 15.5343C9.46507 15.5343 8.78441 16.1663 8.73251 16.2166C8.44613 16.5036 8.46689 16.7515 8.46689 16.9994C8.46689 16.9994 8.46689 19.328 8.46689 19.862C8.46689 20.3964 8.56859 20.6888 9.2451 20.6888H23.7548C24.4313 20.6888 24.5341 20.3964 24.5341 19.862C24.5341 19.328 24.5341 16.9994 24.5341 16.9994C24.5341 16.7515 24.5538 16.5036 24.2664 16.2166C24.2166 16.1663 23.5349 15.5343 23.5349 15.5343ZM11.2062 14.4306C11.2062 14.4306 12.5577 12.1633 12.6371 12.015C12.774 11.7613 13.1631 11.5777 13.561 11.5777H19.439C19.8374 11.5777 20.226 11.7613 20.363 12.015C20.4429 12.1634 21.7943 14.4306 21.7943 14.4306C21.9188 14.6394 21.8089 15.0279 21.44 15.0279H11.56C11.1911 15.0278 11.0817 14.6394 11.2062 14.4306ZM11.0256 19.473C10.3398 19.473 9.78365 18.9555 9.78365 18.3166C9.78365 17.6773 10.3398 17.1598 11.0256 17.1598C11.7115 17.1598 12.2671 17.6773 12.2671 18.3166C12.2671 18.9554 11.7115 19.473 11.0256 19.473ZM18.3853 19.7856C18.3853 19.8701 18.3116 19.9388 18.2213 19.9388H14.7792C14.6884 19.9388 14.6147 19.8701 14.6147 19.7856V18.3732C14.6147 18.2896 14.6884 18.2214 14.7792 18.2214H18.2214C18.3117 18.2214 18.3853 18.2896 18.3853 18.3732V19.7856H18.3853ZM21.9744 19.473C21.2885 19.473 20.7318 18.9555 20.7318 18.3166C20.7318 17.6773 21.2885 17.1598 21.9744 17.1598C22.6602 17.1598 23.2163 17.6778 23.2163 18.3166C23.2163 18.9554 22.6602 19.473 21.9744 19.473Z" fill="white"/>
<path d="M13.077 9.10609C13.0775 8.79538 13.3483 8.54315 13.6819 8.54265H19.3181C19.6512 8.54315 19.922 8.79538 19.9225 9.10609V10.6268H20.5052V9.10609C20.5052 8.49531 19.9739 8.00049 19.3181 8H13.6819C13.0262 8.00049 12.4949 8.49531 12.4944 9.10609V10.6268H13.077V9.10609Z" fill="white"/>
<path d="M14.4793 10.4574H14.7745C14.789 10.4574 14.7983 10.4491 14.7983 10.4366V9.32516C14.7983 9.31647 14.8035 9.31211 14.8118 9.31211H15.2123C15.2258 9.31211 15.2362 9.30388 15.2362 9.29132V9.06034C15.2362 9.04778 15.2258 9.03906 15.2123 9.03906H14.0419C14.0274 9.03906 14.0181 9.04775 14.0181 9.06034V9.29132C14.0181 9.30388 14.0274 9.31211 14.0419 9.31211H14.4419C14.4513 9.31211 14.4559 9.31647 14.4559 9.32516V10.4366C14.4559 10.4491 14.4652 10.4574 14.4793 10.4574Z" fill="white"/>
<path d="M15.8837 9.03906C15.8671 9.03906 15.8577 9.04775 15.8531 9.06034L15.3088 10.4365C15.3036 10.4491 15.3088 10.4573 15.3244 10.4573H15.63C15.646 10.4573 15.6554 10.451 15.66 10.4365L15.7488 10.1882H16.3029L16.3931 10.4365C16.3983 10.451 16.4077 10.4573 16.4243 10.4573H16.7262C16.7428 10.4573 16.747 10.4491 16.7428 10.4365L16.2074 9.06034C16.2023 9.04778 16.194 9.03906 16.1768 9.03906H15.8837ZM16.2095 9.92772H15.8442L16.0237 9.43145H16.0305L16.2095 9.92772Z" fill="white"/>
<path d="M16.9596 10.4573H17.2813C17.3021 10.4573 17.3114 10.451 17.3207 10.4365L17.604 10.0045H17.6113L17.8935 10.4365C17.9028 10.451 17.9111 10.4573 17.9329 10.4573H18.2561C18.2733 10.4573 18.2774 10.4448 18.2712 10.4322L17.7959 9.72524L18.2375 9.06421C18.2452 9.05165 18.24 9.03906 18.224 9.03906H17.9008C17.8821 9.03906 17.8727 9.04534 17.8629 9.06034L17.6113 9.44354H17.604L17.3529 9.06034C17.3441 9.04537 17.3347 9.03906 17.3155 9.03906H16.9918C16.9762 9.03906 16.9711 9.05162 16.9783 9.06421L17.4188 9.72524L16.9462 10.4322C16.9368 10.4447 16.9435 10.4573 16.9596 10.4573Z" fill="white"/>
<path d="M18.6389 9.06034V10.4365C18.6389 10.4491 18.6482 10.4573 18.6618 10.4573H18.958C18.9715 10.4573 18.9808 10.4491 18.9808 10.4365V9.06034C18.9808 9.04778 18.9715 9.03906 18.958 9.03906H18.6618C18.6482 9.03906 18.6389 9.04775 18.6389 9.06034Z" fill="white"/>
</svg>
