<svg width="50" height="50" viewBox="0 0 50 50" fill="none" xmlns="http://www.w3.org/2000/svg">
<circle cx="25" cy="25" r="25" fill="#FA8D1D"/>
<path d="M30.7036 15.3624C30.1072 15.3624 29.6191 15.7947 29.6191 16.3231C29.6191 16.8515 30.1072 17.2838 30.7036 17.2838C32.005 17.2838 33.0352 18.1965 33.0352 19.3493C33.0352 19.8777 33.5233 20.31 34.1197 20.31C34.7162 20.31 35.2042 19.8777 35.2042 19.3493C35.2584 17.1878 33.1979 15.3624 30.7036 15.3624Z" fill="white"/>
<path d="M30.7036 12C30.1072 12 29.6191 12.4323 29.6191 12.9607C29.6191 13.4891 30.1072 13.9214 30.7036 13.9214C34.0655 13.9214 36.8309 16.3712 36.8309 19.3493C36.8309 19.8777 37.319 20.31 37.9154 20.31C38.5119 20.31 38.9999 19.8777 38.9999 19.3493C38.9999 15.3144 35.2584 12 30.7036 12Z" fill="white"/>
<path d="M33.5234 25.3537C33.415 24.9213 33.0353 24.6331 32.5474 24.6331H32.2763L32.0594 22.6637C31.8424 20.4541 29.7819 18.8209 27.2876 18.8209H22.0279C19.5336 18.8209 17.4731 20.5021 17.2562 22.6637L17.0935 24.6331H16.8224C16.3344 24.6331 15.9548 24.9213 15.8463 25.3537L15.033 29.4847C14.9245 30.013 15.0872 30.4934 15.4668 30.9257C15.8463 31.31 16.3886 31.5502 16.9308 31.5502V32.2227C16.9308 33.1834 17.7984 34 18.8829 34H19.4794C20.5638 34 21.4314 33.2314 21.4314 32.2227V31.5502H27.8841V32.2227C27.8841 33.1834 28.7517 34 29.8904 34H30.4869C31.5713 34 32.4931 33.2314 32.4931 32.2227V31.5502C33.0354 31.5502 33.5776 31.31 33.9572 30.9257C34.3368 30.5415 34.4995 30.013 34.391 29.4847L33.5234 25.3537ZM18.6118 29.965C17.69 29.965 16.9308 29.2925 16.9308 28.476C16.9308 27.6594 17.69 26.9868 18.6118 26.9868C19.5336 26.9868 20.2927 27.6594 20.2927 28.4759C20.2927 29.2925 19.5336 29.965 18.6118 29.965ZM19.3167 24.6331L19.5336 22.8558C19.642 21.655 20.7807 20.7904 22.0821 20.7904H27.3419C28.6975 20.7904 29.7819 21.703 29.8904 22.8558L30.1073 24.6331H19.3167ZM30.758 29.965C29.8362 29.965 29.0771 29.2925 29.0771 28.476C29.0771 27.6594 29.8362 26.9869 30.758 26.9869C31.6797 26.9869 32.4389 27.6594 32.4389 28.476C32.4389 29.2925 31.6798 29.965 30.758 29.965Z" fill="white"/>
</svg>
