<svg width="60" height="60" viewBox="0 0 60 60" fill="none" xmlns="http://www.w3.org/2000/svg">
<path d="M30 55C43.8071 55 55 43.8071 55 30C55 16.1929 43.8071 5 30 5C16.1929 5 5 16.1929 5 30C5 43.8071 16.1929 55 30 55Z" fill="#FA8D1D"/>
<path d="M37.5 24.8682C36.25 23.25 34.5 21.25 30 21.25C25.5 21.25 22.5 23.7848 22.5 24.8682C22.5 25.9515 22.6697 27.3192 25 28.75C26.8805 29.9045 31.671 30.1098 33.75 31.25C36.6975 32.8668 37.1242 34.5505 37.1242 35.1305C37.1242 36.7093 33.5438 38.713 30 38.75C26.34 38.7883 23.75 36.75 22.5 35.1305" stroke="white" stroke-width="2" stroke-linecap="round" stroke-linejoin="round"/>
<path d="M30 17.5V42.5" stroke="white" stroke-width="2" stroke-linecap="round" stroke-linejoin="round"/>
</svg>
