<svg width="30" height="30" viewBox="0 0 30 30" fill="none" xmlns="http://www.w3.org/2000/svg">
<circle cx="15" cy="15" r="15" fill="#FA8D1D" fill-opacity="0.23"/>
<circle cx="15" cy="15" r="9.64286" fill="#FA8D1D"/>
<path d="M14.9999 16.7857C15.9862 16.7857 16.7857 15.9862 16.7857 14.9999C16.7857 14.0137 15.9862 13.2142 14.9999 13.2142C14.0137 13.2142 13.2142 14.0137 13.2142 14.9999C13.2142 15.9862 14.0137 16.7857 14.9999 16.7857Z" fill="white"/>
<path d="M15.4464 11.4593V10.5356H14.5536V11.4593C13.768 11.5596 13.0379 11.9179 12.4779 12.4779C11.9179 13.0379 11.5597 13.7679 11.4594 14.5535H10.5357V15.4464H11.4594C11.5595 16.232 11.9177 16.9621 12.4778 17.5222C13.0378 18.0822 13.7679 18.4404 14.5536 18.5406V19.4642H15.4464V18.5406C16.2321 18.4405 16.9623 18.0823 17.5223 17.5222C18.0823 16.9622 18.4405 16.232 18.5406 15.4464H19.4643V14.5535H18.5406C18.4405 13.7679 18.0823 13.0377 17.5222 12.4777C16.9622 11.9177 16.2321 11.5595 15.4464 11.4593ZM15 17.6785C13.5228 17.6785 12.3214 16.4772 12.3214 14.9999C12.3214 13.5227 13.5228 12.3214 15 12.3214C16.4772 12.3214 17.6786 13.5227 17.6786 14.9999C17.6786 16.4772 16.4772 17.6785 15 17.6785Z" fill="white"/>
<path d="M15.4464 11.4593V10.5356H14.5536V11.4593C13.768 11.5596 13.0379 11.9179 12.4779 12.4779C11.9179 13.0379 11.5597 13.7679 11.4594 14.5535H10.5357V15.4464H11.4594C11.5595 16.232 11.9177 16.9621 12.4778 17.5222C13.0378 18.0822 13.7679 18.4404 14.5536 18.5406V19.4642H15.4464V18.5406C16.2321 18.4405 16.9623 18.0823 17.5223 17.5222C18.0823 16.9622 18.4405 16.232 18.5406 15.4464H19.4643V14.5535H18.5406C18.4405 13.7679 18.0823 13.0377 17.5222 12.4777C16.9622 11.9177 16.2321 11.5595 15.4464 11.4593ZM15 17.6785C13.5228 17.6785 12.3214 16.4772 12.3214 14.9999C12.3214 13.5227 13.5228 12.3214 15 12.3214C16.4772 12.3214 17.6786 13.5227 17.6786 14.9999C17.6786 16.4772 16.4772 17.6785 15 17.6785Z" fill="white"/>
</svg>
