<svg width="30" height="30" viewBox="0 0 30 30" fill="none" xmlns="http://www.w3.org/2000/svg">
<circle cx="15" cy="15" r="15" fill="#FA8D1D" fill-opacity="0.23"/>
<circle cx="15" cy="15" r="9.64286" fill="#FA8D1D"/>
<path d="M14.75 19.5714C14.0734 19.0585 13.4462 18.4962 12.875 17.8903C12.0179 16.9805 11 15.6255 11 14.3344C10.9996 13.6749 11.2194 13.0302 11.6314 12.4819C12.0435 11.9335 12.6294 11.5061 13.3149 11.2537C14.0003 11.0014 14.7547 10.9354 15.4824 11.0642C16.2101 11.193 16.8784 11.5107 17.4028 11.9772C17.752 12.2861 18.0287 12.6535 18.2171 13.0581C18.4054 13.4627 18.5015 13.8965 18.5 14.3344C18.5 15.6255 17.4821 16.9805 16.625 17.8903C16.0538 18.4962 15.4266 19.0585 14.75 19.5714ZM14.75 12.9061C14.3238 12.9061 13.915 13.0565 13.6136 13.3244C13.3122 13.5923 13.1429 13.9555 13.1429 14.3344C13.1429 14.7132 13.3122 15.0765 13.6136 15.3443C13.915 15.6122 14.3238 15.7626 14.75 15.7626C15.1762 15.7626 15.585 15.6122 15.8864 15.3443C16.1878 15.0765 16.3571 14.7132 16.3571 14.3344C16.3571 13.9555 16.1878 13.5923 15.8864 13.3244C15.585 13.0565 15.1762 12.9061 14.75 12.9061Z" fill="white"/>
</svg>
