<svg width="18" height="16" viewBox="0 0 18 16" fill="none" xmlns="http://www.w3.org/2000/svg">
<path d="M8.99997 3.22852L2.58035 9.14004C2.58035 9.14838 2.57848 9.16066 2.57472 9.17739C2.57105 9.19399 2.56909 9.20604 2.56909 9.2146V15.2006C2.56909 15.4168 2.63983 15.6041 2.78128 15.7618C2.92268 15.9196 3.09013 15.999 3.28366 15.999H7.57076V11.2101H10.4292V15.9992H14.7163C14.9098 15.9992 15.0775 15.92 15.2187 15.7618C15.3601 15.6043 15.4311 15.4168 15.4311 15.2006V9.2146C15.4311 9.1814 15.427 9.15633 15.4198 9.14004L8.99997 3.22852Z" fill="#FA8D1D"/>
<path d="M17.8758 7.79456L15.4309 5.52482V0.436588C15.4309 0.320267 15.3974 0.224606 15.3303 0.149737C15.2636 0.0749561 15.178 0.0375654 15.0736 0.0375654H12.93C12.8258 0.0375654 12.7402 0.0749561 12.6731 0.149737C12.6062 0.224606 12.5728 0.32031 12.5728 0.436588V2.86842L9.84861 0.324242C9.6107 0.108066 9.32781 0 9.00026 0C8.67276 0 8.38991 0.108066 8.15176 0.324242L0.124063 7.79456C0.0496462 7.86095 0.00885956 7.95032 0.00127316 8.06258C-0.00627413 8.17475 0.0197308 8.27273 0.0793661 8.35581L0.771566 9.27869C0.831201 9.35348 0.909255 9.39921 1.00604 9.41594C1.0954 9.42433 1.18475 9.39515 1.27411 9.32866L9.00003 2.13262L16.726 9.32862C16.7857 9.38663 16.8637 9.41559 16.9605 9.41559H16.9941C17.0907 9.39917 17.1686 9.35313 17.2285 9.27852L17.9208 8.35576C17.9803 8.27251 18.0064 8.17471 17.9987 8.06241C17.991 7.95045 17.9501 7.86108 17.8758 7.79456Z" fill="#FA8D1D"/>
</svg>
