<svg width="30" height="30" viewBox="0 0 30 30" fill="none" xmlns="http://www.w3.org/2000/svg">
<path d="M25 6.25H5C4.30964 6.25 3.75 6.80964 3.75 7.5V22.5C3.75 23.1904 4.30964 23.75 5 23.75H25C25.6904 23.75 26.25 23.1904 26.25 22.5V7.5C26.25 6.80964 25.6904 6.25 25 6.25Z" fill="#2CA9BC"/>
<path d="M17.5 11.25H14.375C13.8777 11.25 13.4008 11.4475 13.0492 11.7992C12.6975 12.1508 12.5 12.6277 12.5 13.125C12.5 13.6223 12.6975 14.0992 13.0492 14.4508C13.4008 14.8025 13.8777 15 14.375 15H15.625C16.1223 15 16.5992 15.1975 16.9508 15.5492C17.3025 15.9008 17.5 16.3777 17.5 16.875C17.5 17.3723 17.3025 17.8492 16.9508 18.2008C16.5992 18.5525 16.1223 18.75 15.625 18.75H12.5" stroke="white" stroke-width="2" stroke-linecap="round" stroke-linejoin="round"/>
<path d="M15 10V11.25M15 18.75V20M26.25 22.5V7.5C26.25 7.16848 26.1183 6.85054 25.8839 6.61612C25.6495 6.3817 25.3315 6.25 25 6.25H5C4.66848 6.25 4.35054 6.3817 4.11612 6.61612C3.8817 6.85054 3.75 7.16848 3.75 7.5V22.5C3.75 22.8315 3.8817 23.1495 4.11612 23.3839C4.35054 23.6183 4.66848 23.75 5 23.75H25C25.3315 23.75 25.6495 23.6183 25.8839 23.3839C26.1183 23.1495 26.25 22.8315 26.25 22.5Z" stroke="white" stroke-width="2" stroke-linecap="round" stroke-linejoin="round"/>
</svg>
