<svg width="18" height="20" viewBox="0 0 18 20" fill="none" xmlns="http://www.w3.org/2000/svg">
<path d="M15.8415 11.5602L15.8346 11.5674L15.828 11.5748L9.00107 19.2478L2.1634 11.5635L2.15676 11.556L2.14983 11.5488C-0.324577 8.98228 0.0207142 4.72048 2.94364 2.44623L2.94367 2.44621C4.54572 1.1995 6.69464 0.5 9.00109 0.5C11.3075 0.5 13.4564 1.1995 15.0585 2.44653L15.0585 2.44657C17.9803 4.72031 18.3269 8.98138 15.8415 11.5602ZM12.8697 6.93975C12.8697 5.1447 11.0481 3.883 9.08416 3.883C7.1202 3.883 5.29866 5.1447 5.29866 6.93975C5.29866 8.73481 7.1202 9.9965 9.08416 9.9965C11.0481 9.9965 12.8697 8.73481 12.8697 6.93975Z" fill="white" stroke="#595555"/>
</svg>
