<svg width="103" height="93" viewBox="0 0 103 93" fill="none" xmlns="http://www.w3.org/2000/svg">
<g filter="url(#filter0_f_806_5213)">
<path d="M75.9763 61.8115C79.7338 60.6767 86.5744 57.5759 89.0328 55.2809C91.8677 52.8786 85.9876 50.191 85.29 49.786C84.5923 49.381 50.3065 32.3708 44.3264 29.7383C38.3464 27.1058 19.41 32.6594 14.8247 35.2059C11.0872 37.2815 13.7284 38.7496 14.2267 39.1547C14.7251 39.5597 43.2853 55.4833 53.5511 60.3434C61.3253 64.0239 68.6009 64.0391 75.9763 61.8115Z" fill="black" fill-opacity="0.2"/>
</g>
<path fill-rule="evenodd" clip-rule="evenodd" d="M48.8503 43.9726L52.6432 42.213L52.6442 42.2152C52.6685 42.2034 52.693 42.192 52.7177 42.1809C54.9771 41.1665 58.2002 43.4645 59.9168 47.3135C61.6334 51.1626 61.1934 55.1051 58.9341 56.1194C58.9028 56.1334 58.8714 56.1468 58.8398 56.1596L55.1828 57.8586L53.1528 53.4072C52.619 52.6999 52.1359 51.8856 51.7351 50.9867C51.3654 50.1578 51.0957 49.3245 50.9227 48.5171L48.8503 43.9726Z" fill="white"/>
<ellipse cx="4.48628" cy="7.62149" rx="4.48628" ry="7.62149" transform="matrix(-0.911862 0.409373 0.407504 0.913706 53.0508 42.0996)" fill="white"/>
<g filter="url(#filter1_i_806_5213)">
<ellipse cx="3.36487" cy="5.71639" rx="3.36487" ry="5.71639" transform="matrix(-0.911862 0.409373 0.407504 0.913706 52.6754 44.3027)" fill="url(#paint0_linear_806_5213)"/>
</g>
<g filter="url(#filter2_di_806_5213)">
<path fill-rule="evenodd" clip-rule="evenodd" d="M52.0724 46.8306C52.5575 47.117 53.0359 47.5421 53.4679 48.0773L52.4865 49.7827C52.3559 49.6295 52.2156 49.502 52.0724 49.405L52.0724 46.8306ZM52.0724 52.6064C52.2836 52.6897 52.4916 52.7006 52.6744 52.6235L54.1085 55.1156C54.034 55.1646 53.9556 55.2078 53.8733 55.2447C53.3324 55.4876 52.703 55.4261 52.0724 55.1224L52.0724 52.6064ZM51.8758 55.0199L51.8758 52.5087C51.7074 52.4078 51.5413 52.2639 51.3885 52.0849L50.427 53.7557C50.8755 54.3061 51.3732 54.738 51.8758 55.0199ZM51.8758 49.292L51.8758 46.7223C51.2207 46.3875 50.5634 46.3114 50.0016 46.5636C49.8446 46.634 49.7018 46.7271 49.5733 46.8403L51.0205 49.3552C51.0701 49.3117 51.1252 49.2758 51.1857 49.2487C51.3931 49.1556 51.634 49.1778 51.8758 49.292ZM49.3876 52.0489C49.6435 52.6228 49.9533 53.1414 50.2959 53.5895L51.2576 51.9183C51.1414 51.7579 51.0361 51.5762 50.9474 51.3773C50.9366 51.3531 50.9262 51.3289 50.9161 51.3047L49.2611 51.7496C49.3009 51.8494 49.3431 51.9492 49.3876 52.0489ZM52.6174 49.9495L53.5985 48.2445C53.9333 48.6867 54.2362 49.1964 54.4873 49.7594C54.5382 49.8736 54.5861 49.988 54.6309 50.1022L52.9542 50.553C52.9452 50.5316 52.936 50.5102 52.9264 50.4889C52.838 50.2907 52.7331 50.1095 52.6174 49.9495ZM49.19 51.5649C48.8923 50.7627 48.7437 49.9681 48.7361 49.2518L50.6977 50.3881C50.7103 50.6189 50.7591 50.8677 50.8458 51.1198L49.19 51.5649ZM53.025 50.7377C53.129 51.0371 53.1796 51.3321 53.1794 51.5982L55.1377 52.7326C55.1544 51.9843 55.012 51.1408 54.7009 50.2872L53.025 50.7377ZM55.1279 52.9543L53.1669 51.8183C53.1315 52.1209 53.0216 52.37 52.8421 52.5207L54.2673 54.9974C54.7764 54.5715 55.069 53.8395 55.1279 52.9543ZM48.7385 49.0258L50.6974 50.1605C50.7113 49.9052 50.7746 49.6815 50.8846 49.5133L49.4284 46.9828C49.0004 47.4523 48.7657 48.1756 48.7385 49.0258Z" fill="#4C4C4C"/>
</g>
<path fill-rule="evenodd" clip-rule="evenodd" d="M48.8528 43.8933L52.6458 42.1337L52.6463 42.1348C52.6698 42.1234 52.6934 42.1123 52.7173 42.1016C54.9766 41.0873 58.1997 43.3853 59.9163 47.2343C61.6329 51.0834 61.1929 55.0259 58.9336 56.0402C58.9101 56.0507 58.8866 56.0609 58.8629 56.0707L55.1854 57.7792L53.1602 53.3384C52.6233 52.6287 52.1375 51.8108 51.7346 50.9075C51.363 50.0742 51.0924 49.2365 50.9195 48.4251L48.8528 43.8933Z" fill="white"/>
<path d="M47.9311 52.7383C49.6464 56.5842 52.8685 58.8798 55.1278 57.8655C57.3871 56.8512 57.8282 52.9111 56.1129 49.0652C54.3976 45.2192 51.0785 42.7166 48.8192 43.7308C46.5599 44.7451 46.2158 48.8923 47.9311 52.7383Z" fill="#2D2C2C"/>
<g filter="url(#filter3_i_806_5213)">
<ellipse cx="3.15356" cy="5.51279" rx="3.15356" ry="5.51279" transform="matrix(-0.907827 0.41954 0.394422 0.918899 52.6655 44.5156)" fill="url(#paint1_linear_806_5213)"/>
</g>
<g filter="url(#filter4_di_806_5213)">
<path fill-rule="evenodd" clip-rule="evenodd" d="M49.9723 52.1375C50.8107 53.8968 52.2117 54.9818 53.3032 54.7443L52.455 52.8063C51.9884 52.7935 51.4483 52.3582 51.0776 51.6811L49.9723 52.1375ZM49.7401 51.594C49.0628 49.8101 49.2076 48.0471 50.0629 47.3408L50.9109 49.2783C50.6159 49.6653 50.5804 50.3919 50.8386 51.1404L49.7401 51.594ZM52.9484 50.2692C52.5625 49.4739 51.9429 48.9649 51.4293 48.9946L50.587 47.0701C51.7175 46.7707 53.2047 47.9335 54.0479 49.8152L52.9484 50.2692ZM53.161 50.8207L54.2674 50.3639C54.8895 52.1264 54.7104 53.8386 53.8379 54.4979L52.9953 52.5726C53.3057 52.2268 53.3715 51.5449 53.161 50.8207Z" fill="#A9A8A8"/>
</g>
<path fill-rule="evenodd" clip-rule="evenodd" d="M20.3508 29.6355L23.6931 28.7709L23.6936 28.7731C23.7149 28.7672 23.7363 28.7617 23.7578 28.7564C25.7436 28.2689 28.0205 30.6156 28.8434 33.9979C29.6662 37.3802 28.7234 40.5173 26.7376 41.0048C26.7083 41.012 26.6789 41.0186 26.6495 41.0245L23.4327 41.8585L22.4456 37.9435C22.1164 37.2888 21.8444 36.5544 21.652 35.7633C21.4745 35.0337 21.3791 34.3155 21.3587 33.6329L20.3508 29.6355Z" fill="white"/>
<ellipse cx="3.70518" cy="6.29333" rx="3.70518" ry="6.29333" transform="matrix(-0.970456 0.238231 0.236561 0.972367 24.0372 28.7383)" fill="white"/>
<g filter="url(#filter5_i_806_5213)">
<ellipse cx="2.77903" cy="4.72026" rx="2.77903" ry="4.72026" transform="matrix(-0.970456 0.238231 0.236561 0.972367 23.4066 30.4727)" fill="url(#paint2_linear_806_5213)"/>
</g>
<g filter="url(#filter6_di_806_5213)">
<path fill-rule="evenodd" clip-rule="evenodd" d="M22.5394 32.4357C22.8913 32.7407 23.2171 33.1575 23.4887 33.6571L22.4374 34.8973C22.3541 34.7532 22.2589 34.6285 22.1569 34.5283L22.5394 32.4357ZM21.6815 37.1291C21.841 37.2284 22.0087 37.2681 22.1689 37.2323L22.9636 39.4699C22.8959 39.4985 22.8259 39.5219 22.7537 39.5396C22.278 39.6564 21.7756 39.5125 21.3081 39.1714L21.6815 37.1291ZM21.1637 39.0589L21.5363 37.0205C21.4146 36.9136 21.3011 36.7721 21.2036 36.6041L20.1755 37.817C20.4578 38.3304 20.7977 38.7551 21.1637 39.0589ZM22.014 34.4072L22.3959 32.3185C21.9137 31.9494 21.3913 31.7899 20.8978 31.9111C20.7597 31.945 20.6298 31.9994 20.5085 32.0722L21.3105 34.3304C21.357 34.3027 21.4068 34.282 21.4596 34.2691C21.642 34.2243 21.8345 34.2783 22.014 34.4072ZM19.5845 36.2755C19.7072 36.7799 19.8819 37.2474 20.0936 37.6624L21.1219 36.4493C21.0512 36.3015 20.9925 36.138 20.9499 35.9629C20.9447 35.9416 20.9398 35.9202 20.9352 35.8989L19.5263 36.0138C19.5438 36.1007 19.5632 36.188 19.5845 36.2755ZM22.5189 35.0523L23.57 33.8123C23.7763 34.2213 23.9466 34.6805 24.0669 35.1752C24.0914 35.2756 24.1133 35.3757 24.1328 35.4752L22.7025 35.5918C22.6984 35.5732 22.6941 35.5545 22.6896 35.5359C22.6472 35.362 22.589 35.1994 22.5189 35.0523ZM19.4959 35.8532C19.3733 35.1577 19.3704 34.4906 19.4704 33.9079L20.894 35.1221C20.8699 35.3114 20.8726 35.5207 20.9056 35.7383L19.4959 35.8532ZM22.7327 35.7524C22.7727 36.0113 22.77 36.2586 22.7303 36.4748L24.1535 37.6887C24.2785 37.0831 24.2882 36.3762 24.1622 35.6359L22.7327 35.7524ZM24.1126 37.8673L22.6874 36.6518C22.6139 36.8919 22.488 37.0775 22.3203 37.1734L23.1102 39.3976C23.5868 39.1277 23.9331 38.5771 24.1126 37.8673ZM19.5058 33.7246L20.9275 34.9372C20.9768 34.7313 21.0618 34.5586 21.1766 34.4383L20.3697 32.1665C19.9522 32.4844 19.654 33.0375 19.5058 33.7246Z" fill="#4C4C4C"/>
</g>
<path fill-rule="evenodd" clip-rule="evenodd" d="M20.3401 29.7213L23.6824 28.8567L23.6825 28.8574C23.7036 28.8516 23.7247 28.8461 23.746 28.8409C25.7318 28.3534 28.0087 30.7001 28.8316 34.0824C29.6544 37.4647 28.7116 40.6018 26.7257 41.0893C26.7068 41.094 26.6879 41.0983 26.669 41.1025L23.422 41.9443L22.4353 38.0311C22.1054 37.3756 21.8329 36.6401 21.6401 35.8478C21.4623 35.117 21.367 34.3976 21.3468 33.7139L20.3401 29.7213Z" fill="white"/>
<ellipse cx="3.74634" cy="6.36326" rx="3.74634" ry="6.36326" transform="matrix(-0.970456 0.238231 0.236561 0.972367 24.0496 28.6738)" fill="#2C2C2C"/>
<g filter="url(#filter7_i_806_5213)">
<g filter="url(#filter8_i_806_5213)">
<ellipse cx="2.60713" cy="4.55764" rx="2.60713" ry="4.55764" transform="matrix(-0.955804 0.291458 0.30431 0.953325 22.8027 31.0723)" fill="url(#paint3_linear_806_5213)"/>
</g>
<g filter="url(#filter9_di_806_5213)">
<path fill-rule="evenodd" clip-rule="evenodd" d="M19.8319 36.8979C20.3196 38.4273 21.3434 39.4973 22.2687 39.4694L21.7939 37.7814C21.4155 37.699 21.0276 37.2775 20.8015 36.6893L19.8319 36.8979ZM19.699 36.4113C19.349 34.8783 19.6725 33.4807 20.4577 33.0313L20.9328 34.7202C20.6491 34.9924 20.5375 35.5686 20.662 36.2041L19.699 36.4113ZM22.5078 35.807C22.281 35.1079 21.8266 34.607 21.3976 34.5593L20.9268 32.8856C21.8965 32.8065 22.9904 33.96 23.4675 35.6005L22.5078 35.807ZM22.6213 36.2978L23.5877 36.0899C23.8908 37.5968 23.5414 38.9454 22.7447 39.3485L22.2742 37.6756C22.5712 37.4447 22.7068 36.9089 22.6213 36.2978Z" fill="#A9A8A8"/>
</g>
</g>
<g filter="url(#filter10_ii_806_5213)">
<path fill-rule="evenodd" clip-rule="evenodd" d="M70.2431 27.7459C70.2788 27.7756 70.3166 27.8026 70.3568 27.8258C70.4974 27.9068 70.6236 27.9636 70.7357 27.9936C72.144 28.3706 83.9408 34.8415 86.5128 37.4419C89.0157 39.9725 88.8769 41.485 88.8124 42.1872C88.8031 42.2886 88.7954 42.3731 88.7973 42.4414C88.8072 42.7816 88.8046 43.4663 88.8014 44.3375C88.7995 44.8506 88.7973 45.4283 88.7973 46.0385L88.7973 48.1114C88.7925 48.2663 88.7932 48.4243 88.7939 48.5856C88.7968 49.2707 88.8001 50.0155 88.3802 50.8315C87.8625 51.8375 85.3634 55.5261 73.2356 59.3367C69.1238 60.6286 64.3473 59.1936 61.3013 57.9312C60.0284 57.4569 59.0647 56.9987 58.5893 56.7622C58.5162 56.7258 58.4597 56.6688 58.4232 56.5998C58.4133 56.5811 58.397 56.5641 58.3783 56.5544V56.5544C58.3501 56.5399 58.3334 56.5131 58.3309 56.4815C58.2498 55.4477 58.0047 53.994 57.6458 52.5395C57.2363 50.9697 56.6958 49.4138 56.1026 48.3993C54.7097 46.0173 51.7452 43.0795 49.414 43.8844C46.7684 44.7978 46.9716 48.6028 47.0224 49.5113C47.0374 49.7785 47.0683 49.9567 47.0989 50.1327C47.1337 50.3328 47.168 50.53 47.1777 50.8521C47.1781 50.8678 47.1777 50.8831 47.1763 50.8981C47.175 50.9126 47.1739 50.9272 47.1742 50.9418C47.1752 50.9954 47.1752 51.0544 47.1741 51.1199C47.1723 51.2198 47.0658 51.2814 46.977 51.2355V51.2355C46.9442 51.2186 46.9061 51.2168 46.8696 51.2231C46.7907 51.2368 46.7055 51.2262 46.6254 51.1852L26.1461 40.7075C26.0375 40.6519 25.9597 40.5492 25.9435 40.4282C25.8833 39.9787 25.8847 39.4555 25.8861 38.8721C25.8902 37.261 25.8954 35.1902 24.6099 32.9405C23.4349 30.8842 21.723 29.5231 20.1689 30.0108C18.6148 30.4986 18.1922 32.1725 18.1074 33.1047C18.0242 34.0202 18.0737 34.8603 18.1024 35.3476V35.3478C18.1139 35.5438 18.1221 35.6828 18.1169 35.7464C18.0988 35.9683 15.8612 34.0428 15.7174 33.3092C15.2796 31.0762 15.1883 28.9852 15.4181 26.7187C15.4557 26.3479 15.5922 25.4115 15.6965 25.0432C15.7124 24.9872 15.7207 24.9296 15.7172 24.8715C15.6703 24.0937 15.8061 22.9509 16.0188 22.4667C16.0379 22.4234 16.0565 22.3778 16.0759 22.3299C16.3034 21.7708 16.6587 20.8977 19.397 19.673C23.2852 17.934 33.8728 14.0629 34.2824 13.9724C35.2503 13.7586 36.49 13.8504 37.4937 13.9248C38.0826 13.9684 38.5902 14.006 38.9139 13.9723C43.589 13.4857 49.0085 14.1312 56.1594 17.738C57.1173 18.1445 58.0644 18.6083 58.9816 19.1378C61.2727 20.4605 63.2027 21.865 64.8075 23.1573C66.6777 24.5866 68.12 25.8717 69.1556 26.7943L69.1557 26.7943L69.1557 26.7944C69.5888 27.1802 69.9508 27.5027 70.2431 27.7459Z" fill="url(#paint4_linear_806_5213)"/>
</g>
<g filter="url(#filter11_ddi_806_5213)">
<path d="M51.5226 35.8595C48.9221 34.7831 47.4607 31.2488 43.5152 27.1093C43.4188 27.0082 43.4532 26.84 43.5829 26.7879L59.6957 20.3163C59.7251 20.3045 59.7562 20.3 59.7871 20.3069C60.074 20.371 61.7423 20.8944 66.3421 24.9394C68.6543 26.9728 69.1172 27.5024 70.3118 28.3076C70.5007 28.4349 70.4679 28.7153 69.7738 29.2875C67.5611 31.1113 55.3678 37.4513 51.5226 35.8595Z" fill="url(#paint5_linear_806_5213)"/>
</g>
<path d="M33.1826 22.1636C29.7645 21.0878 28.8849 21.0817 26.5253 20.9486C24.9016 20.8571 22.3237 21.0972 22.0424 21.8283C21.7612 22.5594 24.8822 24.8554 26.1741 25.5704C26.8055 25.9198 48.5876 36.8364 47.895 35.5462C47.0417 33.9566 43.114 29.4159 41.7726 27.5618C39.5362 24.4705 36.6007 23.2394 33.1826 22.1636Z" fill="url(#paint6_linear_806_5213)"/>
<g filter="url(#filter12_di_806_5213)">
<path d="M25.4357 20.0108L39.7758 14.1699C39.7758 14.1699 39.4543 14.2832 37.6947 14.2573C37.0807 14.2483 22.1979 20.3666 22.0892 20.4621L25.4357 20.0108Z" fill="url(#paint7_linear_806_5213)"/>
</g>
<g filter="url(#filter13_f_806_5213)">
<path d="M58.1112 43.736C52.6041 41.1758 49.5096 37.962 46.1918 35.0244C56.0718 37.9541 76.7514 44.3652 76.4274 44.7824C76.0224 45.304 74.5371 45.9226 69.6019 46.2554C64.7431 46.583 58.7418 44.0291 58.1112 43.736Z" fill="url(#paint8_linear_806_5213)" fill-opacity="0.21"/>
</g>
<g filter="url(#filter14_f_806_5213)">
<path d="M79.3775 31.5162C79.0646 31.2589 75.1327 27.1837 72.1886 25.155C74.622 29.9041 80.1702 40.2269 80.6861 40.1752C81.3311 40.1106 84.2822 39.558 85.1515 37.55C86.0073 35.573 79.7687 31.8379 79.3775 31.5162Z" fill="url(#paint9_linear_806_5213)" fill-opacity="0.13"/>
</g>
<g filter="url(#filter15_di_806_5213)">
<path d="M38.516 36.0634C38.516 35.9879 38.4729 35.9189 38.4051 35.886L36.5269 34.9724C36.3964 34.909 36.2449 35.004 36.2449 35.1492L36.2449 35.4527C36.2449 35.5283 36.2881 35.5973 36.3561 35.6302L38.2342 36.54C38.3647 36.6032 38.516 36.5082 38.516 36.3631L38.516 36.0634Z" fill="#323232"/>
</g>
<g filter="url(#filter16_di_806_5213)">
<path d="M27.979 31.413C27.979 31.3375 27.9359 31.2686 27.8681 31.2356L25.9899 30.322C25.8595 30.2586 25.7079 30.3536 25.7079 30.4988L25.7079 30.8023C25.7079 30.8779 25.7511 30.9469 25.8191 30.9798L27.6972 31.8897C27.8277 31.9529 27.979 31.8579 27.979 31.7127L27.979 31.413Z" fill="#323232"/>
</g>
<g filter="url(#filter17_f_806_5213)">
<path d="M44.9958 49.2488L27.1488 40.5111C27.0506 40.463 26.9769 40.3766 26.9455 40.2718C26.4658 38.6721 25.5911 35.6125 25.5728 34.9669C25.5492 34.1313 46.8159 44.2492 46.0714 46.1397C45.687 47.1159 45.6187 48.0667 45.6605 48.7625C45.681 49.1035 45.3026 49.399 44.9958 49.2488Z" fill="url(#paint10_linear_806_5213)" fill-opacity="0.12"/>
</g>
<path d="M62.2479 33.4519L49.6958 24.3066C48.2582 24.6959 44.9868 26.1606 44.3634 26.3948C43.5557 26.6982 43.4215 26.8673 43.4215 26.8673C43.4215 27.1112 43.546 27.2179 43.938 27.5989C44.5001 28.1453 44.7381 28.3967 46.1306 30.1749C48.136 32.7355 49.6618 35.1181 51.1249 35.6898C52.2888 36.1446 54.1042 36.5424 56.6876 35.6898C58.9968 34.9277 60.4183 34.0666 62.2479 33.4519Z" fill="#C4C4C4" fill-opacity="0.2"/>
<g opacity="0.17" filter="url(#filter18_f_806_5213)">
<path d="M84.5062 40.6973C81.0862 43.4036 73.478 47.2724 70.0809 47.8624" stroke="url(#paint11_linear_806_5213)" stroke-width="6.49057" stroke-linecap="round" stroke-linejoin="round"/>
</g>
<g filter="url(#filter19_ddii_806_5213)">
<path d="M87.1179 41.6847C87.7775 40.7938 87.5947 40.0812 87.4975 38.9623C87.4948 38.9318 87.4876 38.8993 87.4782 38.8703C87.193 37.9871 88.4405 39.8214 88.571 41.0908C88.6141 41.511 88.5871 41.7238 88.5477 42.1117C88.5296 42.2891 88.1646 43.3724 88.2188 43.6063C88.273 43.8402 88.154 45.4521 88.1622 45.6957C88.1704 45.9394 87.1532 47.7521 84.4811 49.5004C82.2614 50.9527 79.0742 51.906 78.7475 51.953C78.4208 52 78.1006 50.9037 77.8634 50.8432C77.2427 50.6847 75.4091 51.3583 74.7247 51.5305C73.926 51.7313 72.0623 52.1944 70.0255 51.9327C67.5063 51.609 67.1208 51.3226 64.8048 50.0612C63.3371 49.2618 62.2763 47.7425 61.8353 46.8191C61.716 46.5693 61.9405 46.3471 62.2033 46.4341C63.8104 46.9661 67.1242 48.1533 70.8658 48.5369C76.4255 49.107 80.8169 46.4645 81.446 46.0846C84.0906 44.4878 85.4797 43.8973 87.1179 41.6847Z" fill="#272727"/>
</g>
<mask id="mask0_806_5213" style="mask-type:alpha" maskUnits="userSpaceOnUse" x="61" y="38" width="28" height="15">
<path d="M87.1176 41.6745C87.64 40.9679 87.6698 40.1454 87.5406 39.4229C87.4702 39.0295 87.8553 38.8122 88.0593 39.1559C88.5648 40.0072 88.7798 40.7308 88.841 41.13C88.8843 41.5502 88.8741 41.817 88.835 42.2049C88.817 42.3824 88.1654 43.3616 88.2197 43.5954C88.274 43.8292 88.156 45.4412 88.1644 45.6849C88.1728 45.9285 87.1568 47.7418 84.4858 49.4919C82.267 50.9456 79.0804 51.9009 78.7538 51.9482C78.4271 51.9954 78.1062 50.8993 77.8689 50.8389C77.2481 50.6808 75.415 51.3556 74.7306 51.5282C73.932 51.7296 72.0687 52.1938 70.0318 51.9335C67.5123 51.6114 67.1266 51.3252 64.8098 50.0653C63.3416 49.2669 62.2799 47.7482 61.8382 46.8251C61.7188 46.5754 61.9432 46.353 62.2061 46.4399C63.8134 46.9708 67.128 48.1559 70.8698 48.5371C76.43 49.1037 80.8196 46.4583 81.4485 46.078C84.0921 44.4795 85.4807 43.8881 87.1176 41.6745Z" fill="#999999"/>
</mask>
<g mask="url(#mask0_806_5213)">
<g filter="url(#filter20_d_806_5213)">
<path d="M65.7859 47.1748L73.267 47.2875C73.2675 47.289 73.2681 47.2905 73.2686 47.292C73.2893 47.3521 73.3157 47.4392 73.3375 47.5454C73.3812 47.7588 73.4049 48.0426 73.3319 48.3361C73.2597 48.6266 73.0916 48.9327 72.7408 49.1954C72.3876 49.46 71.8417 49.6858 71.0067 49.7978C70.5106 49.8644 69.8244 49.862 69.1195 49.7282C68.414 49.5943 67.7003 49.3309 67.14 48.8841C66.837 48.6425 66.4651 48.1654 66.1623 47.735C66.0126 47.5224 65.8828 47.3255 65.7903 47.1817C65.7888 47.1794 65.7874 47.1771 65.7859 47.1748Z" stroke="black" stroke-opacity="0.9" stroke-width="0.292653"/>
</g>
<g filter="url(#filter21_d_806_5213)">
<path d="M87.5107 39.3443C87.5114 39.3456 87.5122 39.3469 87.5129 39.3482C87.5819 39.4697 87.668 39.6451 87.736 39.859C87.8719 40.2865 87.9339 40.8616 87.6499 41.473C87.5691 41.6471 87.4542 41.7629 87.3371 41.8103C87.2284 41.8543 87.0975 41.8479 86.9494 41.7358C86.8473 41.6586 86.7064 41.6279 86.5778 41.615C86.444 41.6016 86.2977 41.6054 86.1652 41.6155C86.1084 41.6198 86.0534 41.6253 86.0019 41.6314L87.5107 39.3443Z" stroke="black" stroke-opacity="0.9" stroke-width="0.292653"/>
</g>
</g>
<defs>
<filter id="filter0_f_806_5213" x="11.9992" y="28.19" width="78.658" height="35.9951" filterUnits="userSpaceOnUse" color-interpolation-filters="sRGB">
<feFlood flood-opacity="0" result="BackgroundImageFix"/>
<feBlend mode="normal" in="SourceGraphic" in2="BackgroundImageFix" result="shape"/>
<feGaussianBlur stdDeviation="0.42845" result="effect1_foregroundBlur_806_5213"/>
</filter>
<filter id="filter1_i_806_5213" x="48.084" y="45.5" width="7.7052" height="10.8066" filterUnits="userSpaceOnUse" color-interpolation-filters="sRGB">
<feFlood flood-opacity="0" result="BackgroundImageFix"/>
<feBlend mode="normal" in="SourceGraphic" in2="BackgroundImageFix" result="shape"/>
<feColorMatrix in="SourceAlpha" type="matrix" values="0 0 0 0 0 0 0 0 0 0 0 0 0 0 0 0 0 0 127 0" result="hardAlpha"/>
<feMorphology radius="0.0983419" operator="erode" in="SourceAlpha" result="effect1_innerShadow_806_5213"/>
<feOffset/>
<feGaussianBlur stdDeviation="0.049171"/>
<feComposite in2="hardAlpha" operator="arithmetic" k2="-1" k3="1"/>
<feColorMatrix type="matrix" values="0 0 0 0 0 0 0 0 0 0 0 0 0 0 0 0 0 0 0.25 0"/>
<feBlend mode="normal" in2="shape" result="effect1_innerShadow_806_5213"/>
</filter>
<filter id="filter2_di_806_5213" x="48.4411" y="46.3944" width="6.75699" height="9.19682" filterUnits="userSpaceOnUse" color-interpolation-filters="sRGB">
<feFlood flood-opacity="0" result="BackgroundImageFix"/>
<feColorMatrix in="SourceAlpha" type="matrix" values="0 0 0 0 0 0 0 0 0 0 0 0 0 0 0 0 0 0 127 0" result="hardAlpha"/>
<feOffset dy="0.0393368"/>
<feGaussianBlur stdDeviation="0.0295026"/>
<feColorMatrix type="matrix" values="0 0 0 0 1 0 0 0 0 1 0 0 0 0 1 0 0 0 0.41 0"/>
<feBlend mode="normal" in2="BackgroundImageFix" result="effect1_dropShadow_806_5213"/>
<feBlend mode="normal" in="SourceGraphic" in2="effect1_dropShadow_806_5213" result="shape"/>
<feColorMatrix in="SourceAlpha" type="matrix" values="0 0 0 0 0 0 0 0 0 0 0 0 0 0 0 0 0 0 127 0" result="hardAlpha"/>
<feOffset dx="-0.295026" dy="0.196684"/>
<feGaussianBlur stdDeviation="0.147513"/>
<feComposite in2="hardAlpha" operator="arithmetic" k2="-1" k3="1"/>
<feColorMatrix type="matrix" values="0 0 0 0 0 0 0 0 0 0 0 0 0 0 0 0 0 0 0.25 0"/>
<feBlend mode="normal" in2="shape" result="effect2_innerShadow_806_5213"/>
</filter>
<filter id="filter3_i_806_5213" x="48.3818" y="45.668" width="7.19031" height="10.4727" filterUnits="userSpaceOnUse" color-interpolation-filters="sRGB">
<feFlood flood-opacity="0" result="BackgroundImageFix"/>
<feBlend mode="normal" in="SourceGraphic" in2="BackgroundImageFix" result="shape"/>
<feColorMatrix in="SourceAlpha" type="matrix" values="0 0 0 0 0 0 0 0 0 0 0 0 0 0 0 0 0 0 127 0" result="hardAlpha"/>
<feMorphology radius="0.243877" operator="erode" in="SourceAlpha" result="effect1_innerShadow_806_5213"/>
<feOffset/>
<feGaussianBlur stdDeviation="0.121939"/>
<feComposite in2="hardAlpha" operator="arithmetic" k2="-1" k3="1"/>
<feColorMatrix type="matrix" values="0 0 0 0 0 0 0 0 0 0 0 0 0 0 0 0 0 0 0.25 0"/>
<feBlend mode="normal" in2="shape" result="effect1_innerShadow_806_5213"/>
</filter>
<filter id="filter4_di_806_5213" x="49.0016" y="47.0026" width="5.73862" height="7.98263" filterUnits="userSpaceOnUse" color-interpolation-filters="sRGB">
<feFlood flood-opacity="0" result="BackgroundImageFix"/>
<feColorMatrix in="SourceAlpha" type="matrix" values="0 0 0 0 0 0 0 0 0 0 0 0 0 0 0 0 0 0 127 0" result="hardAlpha"/>
<feOffset dy="0.0831723"/>
<feGaussianBlur stdDeviation="0.0519827"/>
<feColorMatrix type="matrix" values="0 0 0 0 1 0 0 0 0 1 0 0 0 0 1 0 0 0 0.59 0"/>
<feBlend mode="normal" in2="BackgroundImageFix" result="effect1_dropShadow_806_5213"/>
<feBlend mode="normal" in="SourceGraphic" in2="effect1_dropShadow_806_5213" result="shape"/>
<feColorMatrix in="SourceAlpha" type="matrix" values="0 0 0 0 0 0 0 0 0 0 0 0 0 0 0 0 0 0 127 0" result="hardAlpha"/>
<feOffset dx="-0.311896" dy="0.207931"/>
<feGaussianBlur stdDeviation="0.155948"/>
<feComposite in2="hardAlpha" operator="arithmetic" k2="-1" k3="1"/>
<feColorMatrix type="matrix" values="0 0 0 0 0 0 0 0 0 0 0 0 0 0 0 0 0 0 0.25 0"/>
<feBlend mode="normal" in2="shape" result="effect2_innerShadow_806_5213"/>
</filter>
<filter id="filter5_i_806_5213" x="18.9066" y="31.0859" width="5.83948" height="9.27734" filterUnits="userSpaceOnUse" color-interpolation-filters="sRGB">
<feFlood flood-opacity="0" result="BackgroundImageFix"/>
<feBlend mode="normal" in="SourceGraphic" in2="BackgroundImageFix" result="shape"/>
<feColorMatrix in="SourceAlpha" type="matrix" values="0 0 0 0 0 0 0 0 0 0 0 0 0 0 0 0 0 0 127 0" result="hardAlpha"/>
<feMorphology radius="0.081212" operator="erode" in="SourceAlpha" result="effect1_innerShadow_806_5213"/>
<feOffset/>
<feGaussianBlur stdDeviation="0.040606"/>
<feComposite in2="hardAlpha" operator="arithmetic" k2="-1" k3="1"/>
<feColorMatrix type="matrix" values="0 0 0 0 0 0 0 0 0 0 0 0 0 0 0 0 0 0 0.25 0"/>
<feBlend mode="normal" in2="shape" result="effect1_innerShadow_806_5213"/>
</filter>
<filter id="filter6_di_806_5213" x="19.1558" y="31.8549" width="5.14502" height="7.88765" filterUnits="userSpaceOnUse" color-interpolation-filters="sRGB">
<feFlood flood-opacity="0" result="BackgroundImageFix"/>
<feColorMatrix in="SourceAlpha" type="matrix" values="0 0 0 0 0 0 0 0 0 0 0 0 0 0 0 0 0 0 127 0" result="hardAlpha"/>
<feOffset dy="0.0324848"/>
<feGaussianBlur stdDeviation="0.0243636"/>
<feColorMatrix type="matrix" values="0 0 0 0 1 0 0 0 0 1 0 0 0 0 1 0 0 0 0.41 0"/>
<feBlend mode="normal" in2="BackgroundImageFix" result="effect1_dropShadow_806_5213"/>
<feBlend mode="normal" in="SourceGraphic" in2="effect1_dropShadow_806_5213" result="shape"/>
<feColorMatrix in="SourceAlpha" type="matrix" values="0 0 0 0 0 0 0 0 0 0 0 0 0 0 0 0 0 0 127 0" result="hardAlpha"/>
<feOffset dx="-0.243636" dy="0.162424"/>
<feGaussianBlur stdDeviation="0.121818"/>
<feComposite in2="hardAlpha" operator="arithmetic" k2="-1" k3="1"/>
<feColorMatrix type="matrix" values="0 0 0 0 0 0 0 0 0 0 0 0 0 0 0 0 0 0 0.25 0"/>
<feBlend mode="normal" in2="shape" result="effect2_innerShadow_806_5213"/>
</filter>
<filter id="filter7_i_806_5213" x="18.8453" y="31.7656" width="5.70483" height="8.82227" filterUnits="userSpaceOnUse" color-interpolation-filters="sRGB">
<feFlood flood-opacity="0" result="BackgroundImageFix"/>
<feBlend mode="normal" in="SourceGraphic" in2="BackgroundImageFix" result="shape"/>
<feColorMatrix in="SourceAlpha" type="matrix" values="0 0 0 0 0 0 0 0 0 0 0 0 0 0 0 0 0 0 127 0" result="hardAlpha"/>
<feMorphology radius="0.243877" operator="erode" in="SourceAlpha" result="effect1_innerShadow_806_5213"/>
<feOffset/>
<feGaussianBlur stdDeviation="0.121939"/>
<feComposite in2="hardAlpha" operator="arithmetic" k2="-1" k3="1"/>
<feColorMatrix type="matrix" values="0 0 0 0 0 0 0 0 0 0 0 0 0 0 0 0 0 0 0.25 0"/>
<feBlend mode="normal" in2="shape" result="effect1_innerShadow_806_5213"/>
</filter>
<filter id="filter8_i_806_5213" x="18.8453" y="31.7656" width="5.70483" height="8.82227" filterUnits="userSpaceOnUse" color-interpolation-filters="sRGB">
<feFlood flood-opacity="0" result="BackgroundImageFix"/>
<feBlend mode="normal" in="SourceGraphic" in2="BackgroundImageFix" result="shape"/>
<feColorMatrix in="SourceAlpha" type="matrix" values="0 0 0 0 0 0 0 0 0 0 0 0 0 0 0 0 0 0 127 0" result="hardAlpha"/>
<feMorphology radius="0.0730898" operator="erode" in="SourceAlpha" result="effect1_innerShadow_806_5213"/>
<feOffset/>
<feGaussianBlur stdDeviation="0.0365449"/>
<feComposite in2="hardAlpha" operator="arithmetic" k2="-1" k3="1"/>
<feColorMatrix type="matrix" values="0 0 0 0 0 0 0 0 0 0 0 0 0 0 0 0 0 0 0.25 0"/>
<feBlend mode="normal" in2="shape" result="effect1_innerShadow_806_5213"/>
</filter>
<filter id="filter9_di_806_5213" x="19.2467" y="32.8601" width="4.55331" height="6.81857" filterUnits="userSpaceOnUse" color-interpolation-filters="sRGB">
<feFlood flood-opacity="0" result="BackgroundImageFix"/>
<feColorMatrix in="SourceAlpha" type="matrix" values="0 0 0 0 0 0 0 0 0 0 0 0 0 0 0 0 0 0 127 0" result="hardAlpha"/>
<feOffset dy="0.0831723"/>
<feGaussianBlur stdDeviation="0.0519827"/>
<feColorMatrix type="matrix" values="0 0 0 0 1 0 0 0 0 1 0 0 0 0 1 0 0 0 0.59 0"/>
<feBlend mode="normal" in2="BackgroundImageFix" result="effect1_dropShadow_806_5213"/>
<feBlend mode="normal" in="SourceGraphic" in2="effect1_dropShadow_806_5213" result="shape"/>
<feColorMatrix in="SourceAlpha" type="matrix" values="0 0 0 0 0 0 0 0 0 0 0 0 0 0 0 0 0 0 127 0" result="hardAlpha"/>
<feOffset dx="-0.311896" dy="0.207931"/>
<feGaussianBlur stdDeviation="0.155948"/>
<feComposite in2="hardAlpha" operator="arithmetic" k2="-1" k3="1"/>
<feColorMatrix type="matrix" values="0 0 0 0 0 0 0 0 0 0 0 0 0 0 0 0 0 0 0.25 0"/>
<feBlend mode="normal" in2="shape" result="effect2_innerShadow_806_5213"/>
</filter>
<filter id="filter10_ii_806_5213" x="15.2959" y="11.8791" width="75.006" height="47.9647" filterUnits="userSpaceOnUse" color-interpolation-filters="sRGB">
<feFlood flood-opacity="0" result="BackgroundImageFix"/>
<feBlend mode="normal" in="SourceGraphic" in2="BackgroundImageFix" result="shape"/>
<feColorMatrix in="SourceAlpha" type="matrix" values="0 0 0 0 0 0 0 0 0 0 0 0 0 0 0 0 0 0 127 0" result="hardAlpha"/>
<feOffset dx="1.46326" dy="-1.95102"/>
<feGaussianBlur stdDeviation="5.85305"/>
<feComposite in2="hardAlpha" operator="arithmetic" k2="-1" k3="1"/>
<feColorMatrix type="matrix" values="0 0 0 0 0 0 0 0 0 0 0 0 0 0 0 0 0 0 0.07 0"/>
<feBlend mode="normal" in2="shape" result="effect1_innerShadow_806_5213"/>
<feColorMatrix in="SourceAlpha" type="matrix" values="0 0 0 0 0 0 0 0 0 0 0 0 0 0 0 0 0 0 127 0" result="hardAlpha"/>
<feOffset dy="-0.243877"/>
<feGaussianBlur stdDeviation="0.487754"/>
<feComposite in2="hardAlpha" operator="arithmetic" k2="-1" k3="1"/>
<feColorMatrix type="matrix" values="0 0 0 0 0 0 0 0 0 0 0 0 0 0 0 0 0 0 0.09 0"/>
<feBlend mode="normal" in2="effect1_innerShadow_806_5213" result="effect2_innerShadow_806_5213"/>
</filter>
<filter id="filter11_ddi_806_5213" x="43.0666" y="20.0077" width="27.5407" height="16.4006" filterUnits="userSpaceOnUse" color-interpolation-filters="sRGB">
<feFlood flood-opacity="0" result="BackgroundImageFix"/>
<feColorMatrix in="SourceAlpha" type="matrix" values="0 0 0 0 0 0 0 0 0 0 0 0 0 0 0 0 0 0 127 0" result="hardAlpha"/>
<feOffset dx="-0.196684" dy="0.0983419"/>
<feGaussianBlur stdDeviation="0.0983419"/>
<feColorMatrix type="matrix" values="0 0 0 0 1 0 0 0 0 1 0 0 0 0 1 0 0 0 0.28 0"/>
<feBlend mode="normal" in2="BackgroundImageFix" result="effect1_dropShadow_806_5213"/>
<feColorMatrix in="SourceAlpha" type="matrix" values="0 0 0 0 0 0 0 0 0 0 0 0 0 0 0 0 0 0 127 0" result="hardAlpha"/>
<feOffset dy="-0.0983419"/>
<feGaussianBlur stdDeviation="0.0983419"/>
<feColorMatrix type="matrix" values="0 0 0 0 1 0 0 0 0 1 0 0 0 0 1 0 0 0 0.56 0"/>
<feBlend mode="normal" in2="effect1_dropShadow_806_5213" result="effect2_dropShadow_806_5213"/>
<feBlend mode="normal" in="SourceGraphic" in2="effect2_dropShadow_806_5213" result="shape"/>
<feColorMatrix in="SourceAlpha" type="matrix" values="0 0 0 0 0 0 0 0 0 0 0 0 0 0 0 0 0 0 127 0" result="hardAlpha"/>
<feOffset dx="-0.0983419" dy="0.295026"/>
<feGaussianBlur stdDeviation="0.147513"/>
<feComposite in2="hardAlpha" operator="arithmetic" k2="-1" k3="1"/>
<feColorMatrix type="matrix" values="0 0 0 0 0 0 0 0 0 0 0 0 0 0 0 0 0 0 0.75 0"/>
<feBlend mode="normal" in2="shape" result="effect3_innerShadow_806_5213"/>
</filter>
<filter id="filter12_di_806_5213" x="21.6959" y="14.1699" width="18.1816" height="6.68634" filterUnits="userSpaceOnUse" color-interpolation-filters="sRGB">
<feFlood flood-opacity="0" result="BackgroundImageFix"/>
<feColorMatrix in="SourceAlpha" type="matrix" values="0 0 0 0 0 0 0 0 0 0 0 0 0 0 0 0 0 0 127 0" result="hardAlpha"/>
<feOffset dy="0.101698"/>
<feGaussianBlur stdDeviation="0.0508492"/>
<feColorMatrix type="matrix" values="0 0 0 0 0.925374 0 0 0 0 0.925374 0 0 0 0 0.925374 0 0 0 0.37 0"/>
<feBlend mode="normal" in2="BackgroundImageFix" result="effect1_dropShadow_806_5213"/>
<feBlend mode="normal" in="SourceGraphic" in2="effect1_dropShadow_806_5213" result="shape"/>
<feColorMatrix in="SourceAlpha" type="matrix" values="0 0 0 0 0 0 0 0 0 0 0 0 0 0 0 0 0 0 127 0" result="hardAlpha"/>
<feOffset dx="-0.393368" dy="0.49171"/>
<feGaussianBlur stdDeviation="0.196684"/>
<feComposite in2="hardAlpha" operator="arithmetic" k2="-1" k3="1"/>
<feColorMatrix type="matrix" values="0 0 0 0 0 0 0 0 0 0 0 0 0 0 0 0 0 0 0.8 0"/>
<feBlend mode="normal" in2="shape" result="effect2_innerShadow_806_5213"/>
</filter>
<filter id="filter13_f_806_5213" x="43.4382" y="32.2699" width="35.7465" height="16.7689" filterUnits="userSpaceOnUse" color-interpolation-filters="sRGB">
<feFlood flood-opacity="0" result="BackgroundImageFix"/>
<feBlend mode="normal" in="SourceGraphic" in2="BackgroundImageFix" result="shape"/>
<feGaussianBlur stdDeviation="1.37679" result="effect1_foregroundBlur_806_5213"/>
</filter>
<filter id="filter14_f_806_5213" x="70.4184" y="23.3841" width="16.5836" height="18.5618" filterUnits="userSpaceOnUse" color-interpolation-filters="sRGB">
<feFlood flood-opacity="0" result="BackgroundImageFix"/>
<feBlend mode="normal" in="SourceGraphic" in2="BackgroundImageFix" result="shape"/>
<feGaussianBlur stdDeviation="0.885077" result="effect1_foregroundBlur_806_5213"/>
</filter>
<filter id="filter15_di_806_5213" x="36.1961" y="34.8556" width="2.36867" height="1.94885" filterUnits="userSpaceOnUse" color-interpolation-filters="sRGB">
<feFlood flood-opacity="0" result="BackgroundImageFix"/>
<feColorMatrix in="SourceAlpha" type="matrix" values="0 0 0 0 0 0 0 0 0 0 0 0 0 0 0 0 0 0 127 0" result="hardAlpha"/>
<feOffset dy="-0.0487754"/>
<feGaussianBlur stdDeviation="0.0243877"/>
<feColorMatrix type="matrix" values="0 0 0 0 0.78755 0 0 0 0 0.78755 0 0 0 0 0.78755 0 0 0 0.19 0"/>
<feBlend mode="normal" in2="BackgroundImageFix" result="effect1_dropShadow_806_5213"/>
<feBlend mode="normal" in="SourceGraphic" in2="effect1_dropShadow_806_5213" result="shape"/>
<feColorMatrix in="SourceAlpha" type="matrix" values="0 0 0 0 0 0 0 0 0 0 0 0 0 0 0 0 0 0 127 0" result="hardAlpha"/>
<feOffset dy="0.243877"/>
<feGaussianBlur stdDeviation="0.121939"/>
<feComposite in2="hardAlpha" operator="arithmetic" k2="-1" k3="1"/>
<feColorMatrix type="matrix" values="0 0 0 0 0 0 0 0 0 0 0 0 0 0 0 0 0 0 0.74 0"/>
<feBlend mode="normal" in2="shape" result="effect2_innerShadow_806_5213"/>
</filter>
<filter id="filter16_di_806_5213" x="25.6591" y="30.2052" width="2.36867" height="1.94885" filterUnits="userSpaceOnUse" color-interpolation-filters="sRGB">
<feFlood flood-opacity="0" result="BackgroundImageFix"/>
<feColorMatrix in="SourceAlpha" type="matrix" values="0 0 0 0 0 0 0 0 0 0 0 0 0 0 0 0 0 0 127 0" result="hardAlpha"/>
<feOffset dy="-0.0487754"/>
<feGaussianBlur stdDeviation="0.0243877"/>
<feColorMatrix type="matrix" values="0 0 0 0 0.78755 0 0 0 0 0.78755 0 0 0 0 0.78755 0 0 0 0.19 0"/>
<feBlend mode="normal" in2="BackgroundImageFix" result="effect1_dropShadow_806_5213"/>
<feBlend mode="normal" in="SourceGraphic" in2="effect1_dropShadow_806_5213" result="shape"/>
<feColorMatrix in="SourceAlpha" type="matrix" values="0 0 0 0 0 0 0 0 0 0 0 0 0 0 0 0 0 0 127 0" result="hardAlpha"/>
<feOffset dy="0.243877"/>
<feGaussianBlur stdDeviation="0.121939"/>
<feComposite in2="hardAlpha" operator="arithmetic" k2="-1" k3="1"/>
<feColorMatrix type="matrix" values="0 0 0 0 0 0 0 0 0 0 0 0 0 0 0 0 0 0 0.74 0"/>
<feBlend mode="normal" in2="shape" result="effect2_innerShadow_806_5213"/>
</filter>
<filter id="filter17_f_806_5213" x="24.9827" y="34.3279" width="21.6979" height="15.5512" filterUnits="userSpaceOnUse" color-interpolation-filters="sRGB">
<feFlood flood-opacity="0" result="BackgroundImageFix"/>
<feBlend mode="normal" in="SourceGraphic" in2="BackgroundImageFix" result="shape"/>
<feGaussianBlur stdDeviation="0.295026" result="effect1_foregroundBlur_806_5213"/>
</filter>
<filter id="filter18_f_806_5213" x="65.8517" y="36.4678" width="22.8833" height="15.6231" filterUnits="userSpaceOnUse" color-interpolation-filters="sRGB">
<feFlood flood-opacity="0" result="BackgroundImageFix"/>
<feBlend mode="normal" in="SourceGraphic" in2="BackgroundImageFix" result="shape"/>
<feGaussianBlur stdDeviation="0.49171" result="effect1_foregroundBlur_806_5213"/>
</filter>
<filter id="filter19_ddii_806_5213" x="61.68" y="38.4551" width="27.0353" height="14.4004" filterUnits="userSpaceOnUse" color-interpolation-filters="sRGB">
<feFlood flood-opacity="0" result="BackgroundImageFix"/>
<feColorMatrix in="SourceAlpha" type="matrix" values="0 0 0 0 0 0 0 0 0 0 0 0 0 0 0 0 0 0 127 0" result="hardAlpha"/>
<feOffset dy="0.0918004"/>
<feGaussianBlur stdDeviation="0.0612002"/>
<feColorMatrix type="matrix" values="0 0 0 0 0 0 0 0 0 0 0 0 0 0 0 0 0 0 0.57 0"/>
<feBlend mode="normal" in2="BackgroundImageFix" result="effect1_dropShadow_806_5213"/>
<feColorMatrix in="SourceAlpha" type="matrix" values="0 0 0 0 0 0 0 0 0 0 0 0 0 0 0 0 0 0 127 0" result="hardAlpha"/>
<feOffset dy="-0.0612002"/>
<feGaussianBlur stdDeviation="0.0612002"/>
<feColorMatrix type="matrix" values="0 0 0 0 0 0 0 0 0 0 0 0 0 0 0 0 0 0 1 0"/>
<feBlend mode="normal" in2="effect1_dropShadow_806_5213" result="effect2_dropShadow_806_5213"/>
<feBlend mode="normal" in="SourceGraphic" in2="effect2_dropShadow_806_5213" result="shape"/>
<feColorMatrix in="SourceAlpha" type="matrix" values="0 0 0 0 0 0 0 0 0 0 0 0 0 0 0 0 0 0 127 0" result="hardAlpha"/>
<feOffset dy="0.843717"/>
<feGaussianBlur stdDeviation="0.859839"/>
<feComposite in2="hardAlpha" operator="arithmetic" k2="-1" k3="1"/>
<feColorMatrix type="matrix" values="0 0 0 0 0 0 0 0 0 0 0 0 0 0 0 0 0 0 1 0"/>
<feBlend mode="normal" in2="shape" result="effect3_innerShadow_806_5213"/>
<feColorMatrix in="SourceAlpha" type="matrix" values="0 0 0 0 0 0 0 0 0 0 0 0 0 0 0 0 0 0 127 0" result="hardAlpha"/>
<feOffset dy="-0.0919405"/>
<feGaussianBlur stdDeviation="0.0919405"/>
<feComposite in2="hardAlpha" operator="arithmetic" k2="-1" k3="1"/>
<feColorMatrix type="matrix" values="0 0 0 0 0 0 0 0 0 0 0 0 0 0 0 0 0 0 1 0"/>
<feBlend mode="normal" in2="effect3_innerShadow_806_5213" result="effect4_innerShadow_806_5213"/>
</filter>
<filter id="filter20_d_806_5213" x="65.4949" y="47.0254" width="8.24882" height="3.20329" filterUnits="userSpaceOnUse" color-interpolation-filters="sRGB">
<feFlood flood-opacity="0" result="BackgroundImageFix"/>
<feColorMatrix in="SourceAlpha" type="matrix" values="0 0 0 0 0 0 0 0 0 0 0 0 0 0 0 0 0 0 127 0" result="hardAlpha"/>
<feOffset dx="0.0975509" dy="0.121177"/>
<feGaussianBlur stdDeviation="0.0605883"/>
<feColorMatrix type="matrix" values="0 0 0 0 1 0 0 0 0 1 0 0 0 0 1 0 0 0 0.24 0"/>
<feBlend mode="normal" in2="BackgroundImageFix" result="effect1_dropShadow_806_5213"/>
<feBlend mode="normal" in="SourceGraphic" in2="effect1_dropShadow_806_5213" result="shape"/>
</filter>
<filter id="filter21_d_806_5213" x="85.6743" y="39.0762" width="2.5413" height="3.1486" filterUnits="userSpaceOnUse" color-interpolation-filters="sRGB">
<feFlood flood-opacity="0" result="BackgroundImageFix"/>
<feColorMatrix in="SourceAlpha" type="matrix" values="0 0 0 0 0 0 0 0 0 0 0 0 0 0 0 0 0 0 127 0" result="hardAlpha"/>
<feOffset dx="0.0975508" dy="0.121176"/>
<feGaussianBlur stdDeviation="0.0605882"/>
<feColorMatrix type="matrix" values="0 0 0 0 1 0 0 0 0 1 0 0 0 0 1 0 0 0 0.24 0"/>
<feBlend mode="normal" in2="BackgroundImageFix" result="effect1_dropShadow_806_5213"/>
<feBlend mode="normal" in="SourceGraphic" in2="effect1_dropShadow_806_5213" result="shape"/>
</filter>
<linearGradient id="paint0_linear_806_5213" x1="7.93699" y1="8.72021" x2="8.33225" y2="2.84146" gradientUnits="userSpaceOnUse">
<stop stop-color="#3F3F3F"/>
<stop offset="1" stop-color="#5C5C5C"/>
</linearGradient>
<linearGradient id="paint1_linear_806_5213" x1="7.43857" y1="8.40963" x2="7.8307" y2="2.74176" gradientUnits="userSpaceOnUse">
<stop stop-color="#AAAAAA"/>
<stop offset="1" stop-color="#C2C2C2"/>
</linearGradient>
<linearGradient id="paint2_linear_806_5213" x1="6.55511" y1="7.20064" x2="6.88144" y2="2.34631" gradientUnits="userSpaceOnUse">
<stop stop-color="#3F3F3F"/>
<stop offset="1" stop-color="#5C5C5C"/>
</linearGradient>
<linearGradient id="paint3_linear_806_5213" x1="6.14964" y1="6.95257" x2="6.47384" y2="2.26672" gradientUnits="userSpaceOnUse">
<stop stop-color="#AAAAAA"/>
<stop offset="1" stop-color="#C2C2C2"/>
</linearGradient>
<linearGradient id="paint4_linear_806_5213" x1="56.7407" y1="57.6864" x2="90.4473" y2="16.6141" gradientUnits="userSpaceOnUse">
<stop stop-color="#FA8D1D"/>
<stop offset="1" stop-color="white"/>
</linearGradient>
<linearGradient id="paint5_linear_806_5213" x1="59.9002" y1="6.36947" x2="40.696" y2="24.5375" gradientUnits="userSpaceOnUse">
<stop stop-color="#E8EAE9"/>
<stop offset="0.498386" stop-color="#707072"/>
<stop offset="1" stop-color="#2F3032"/>
</linearGradient>
<linearGradient id="paint6_linear_806_5213" x1="28.3717" y1="67.2359" x2="46.7193" y2="33.7073" gradientUnits="userSpaceOnUse">
<stop stop-color="#E8EAE9"/>
<stop offset="0.498386" stop-color="#707072"/>
<stop offset="1" stop-color="#2F3032"/>
</linearGradient>
<linearGradient id="paint7_linear_806_5213" x1="20.5468" y1="32.5834" x2="30.7772" y2="17.6128" gradientUnits="userSpaceOnUse">
<stop stop-color="#E8EAE9"/>
<stop offset="0.498386" stop-color="#707072"/>
<stop offset="1" stop-color="#2F3032"/>
</linearGradient>
<linearGradient id="paint8_linear_806_5213" x1="60.3122" y1="46.9368" x2="62.6958" y2="39.9698" gradientUnits="userSpaceOnUse">
<stop stop-color="#ECEAEA"/>
<stop offset="1" stop-color="white" stop-opacity="0"/>
</linearGradient>
<linearGradient id="paint9_linear_806_5213" x1="87.3942" y1="34.5247" x2="78.4015" y2="37.6627" gradientUnits="userSpaceOnUse">
<stop stop-color="#ECEAEA"/>
<stop offset="1" stop-color="white" stop-opacity="0"/>
</linearGradient>
<linearGradient id="paint10_linear_806_5213" x1="38.9278" y1="48.1308" x2="41.6336" y2="42.3749" gradientUnits="userSpaceOnUse">
<stop stop-color="#040404"/>
<stop offset="1" stop-color="#3C3C3C" stop-opacity="0"/>
</linearGradient>
<linearGradient id="paint11_linear_806_5213" x1="77.515" y1="47.7863" x2="75.9079" y2="44.6614" gradientUnits="userSpaceOnUse">
<stop stop-color="#4B4B4B"/>
<stop offset="0.899322" stop-opacity="0"/>
</linearGradient>
</defs>
</svg>
