<svg width="18" height="23" viewBox="0 0 18 23" fill="none" xmlns="http://www.w3.org/2000/svg">
<path d="M8.9427 23C7.32911 21.6236 5.83344 20.1147 4.47135 18.489C2.42731 16.0477 1.12281e-06 12.4118 1.12281e-06 8.94718C-0.000885352 7.17776 0.52316 5.44784 1.50582 3.97635C2.48847 2.50487 3.88557 1.35797 5.52029 0.680805C7.15501 0.00363676 8.95388 -0.17336 10.6892 0.172213C12.4246 0.517786 14.0184 1.3704 15.269 2.62214C16.1017 3.45108 16.7616 4.43692 17.2107 5.52261C17.6598 6.6083 17.8891 7.77228 17.8854 8.94718C17.8854 12.4118 15.4581 16.0477 13.4141 18.489C12.052 20.1147 10.5563 21.6236 8.9427 23ZM8.9427 5.1146C7.92624 5.1146 6.9514 5.51839 6.23265 6.23714C5.5139 6.95589 5.11012 7.93072 5.11012 8.94718C5.11012 9.96365 5.5139 10.9385 6.23265 11.6572C6.9514 12.376 7.92624 12.7798 8.9427 12.7798C9.95917 12.7798 10.934 12.376 11.6528 11.6572C12.3715 10.9385 12.7753 9.96365 12.7753 8.94718C12.7753 7.93072 12.3715 6.95589 11.6528 6.23714C10.934 5.51839 9.95917 5.1146 8.9427 5.1146Z" fill="#FA8D1D"/>
</svg>
