<svg width="50" height="50" viewBox="0 0 50 50" fill="none" xmlns="http://www.w3.org/2000/svg">
<circle cx="25" cy="25" r="25" fill="#A50064"/>
<path d="M32.6642 13.0009C29.7207 13.0009 27.3347 15.5262 27.3347 18.6383C27.3347 21.7503 29.7269 24.2756 32.6642 24.2756C35.6015 24.2756 38 21.7503 38 18.6383C38 15.5262 35.614 13.0009 32.6642 13.0009ZM32.6642 21.0435C32.0749 21.0554 31.5053 20.8092 31.0807 20.3588C30.6561 19.9085 30.4112 19.2909 30.3997 18.6417C30.4301 18.0028 30.682 17.401 31.1033 16.9606C31.5247 16.5202 32.0834 16.2747 32.6642 16.2747C33.2451 16.2747 33.8038 16.5202 34.2251 16.9606C34.6464 17.401 34.8983 18.0028 34.9287 18.6417C34.9173 19.2909 34.6723 19.9085 34.2477 20.3588C33.8231 20.8092 33.2536 21.0554 32.6642 21.0435ZM25.8115 17.2349V24.2996H22.734V17.2006C22.734 16.9367 22.6388 16.6836 22.4694 16.497C22.3 16.3104 22.0703 16.2056 21.8307 16.2056C21.5911 16.2056 21.3613 16.3104 21.1919 16.497C21.0225 16.6836 20.9274 16.9367 20.9274 17.2006V24.2996H17.8623V17.2006C17.8623 16.9367 17.7672 16.6836 17.5977 16.497C17.4283 16.3104 17.1986 16.2056 16.959 16.2056C16.7194 16.2056 16.4897 16.3104 16.3203 16.497C16.1509 16.6836 16.0557 16.9367 16.0557 17.2006V24.2996H13V17.2349C13.0229 16.0895 13.457 15.0007 14.2072 14.2071C14.9575 13.4135 15.9627 12.9798 17.0026 13.0009C17.8635 12.999 18.703 13.2968 19.4011 13.8519C20.0986 13.2981 20.9366 13.0004 21.7964 13.0009C22.8383 12.977 23.8462 13.4094 24.5989 14.2032C25.3517 14.997 25.7878 16.0873 25.8115 17.2349ZM32.6642 26.7014C29.7207 26.7014 27.3347 29.2232 27.3347 32.3387C27.3347 35.4541 29.7269 37.9863 32.6642 37.9863C35.6015 37.9863 37.9938 35.4644 37.9938 32.3524C37.9938 29.2404 35.614 26.7014 32.6642 26.7014ZM32.6642 34.7439C32.2369 34.7257 31.8239 34.5696 31.4766 34.2948C31.1293 34.0201 30.8629 33.639 30.7107 33.1988C30.5585 32.7587 30.5272 32.279 30.6205 31.8193C30.7139 31.3597 30.928 30.9404 31.236 30.6138C31.544 30.2871 31.9324 30.0673 32.3529 29.9819C32.7734 29.8965 33.2075 29.9492 33.601 30.1334C33.9945 30.3176 34.3302 30.6252 34.5663 31.0179C34.8024 31.4106 34.9284 31.8711 34.9287 32.3421C34.9247 32.6647 34.8628 32.9832 34.7467 33.2794C34.6306 33.5756 34.4625 33.8437 34.2521 34.0681C34.0417 34.2925 33.7931 34.469 33.5206 34.5873C33.2481 34.7056 32.9571 34.7635 32.6642 34.7576V34.7439ZM25.8115 30.9491V38H22.734V30.9113C22.734 30.6474 22.6388 30.3943 22.4694 30.2077C22.3 30.0211 22.0703 29.9163 21.8307 29.9163C21.5911 29.9163 21.3613 30.0211 21.1919 30.2077C21.0225 30.3943 20.9274 30.6474 20.9274 30.9113V38H17.8623V30.9113C17.8623 30.6474 17.7672 30.3943 17.5977 30.2077C17.4283 30.0211 17.1986 29.9163 16.959 29.9163C16.7194 29.9163 16.4897 30.0211 16.3203 30.2077C16.1509 30.3943 16.0557 30.6474 16.0557 30.9113V38H13V30.9491C13.0093 30.3806 13.1203 29.8197 13.3265 29.2984C13.5328 28.7772 13.8303 28.3059 14.202 27.9114C14.5738 27.5169 15.0124 27.2069 15.493 26.9993C15.9735 26.7917 16.4865 26.6904 17.0026 26.7014C17.863 26.6998 18.702 26.9963 19.4011 27.5488C20.0987 26.9957 20.9369 26.6991 21.7964 26.7014C22.3134 26.6891 22.8276 26.7893 23.3094 26.9962C23.7912 27.2032 24.2312 27.5128 24.6042 27.9074C24.9772 28.302 25.2758 28.7738 25.483 29.2957C25.6901 29.8177 25.8018 30.3795 25.8115 30.9491Z" fill="white"/>
</svg>
