<svg width="20" height="20" viewBox="0 0 20 20" fill="none" xmlns="http://www.w3.org/2000/svg">
<g clip-path="url(#clip0_401_5475)">
<path d="M1.66663 11.6667C1.66663 8.524 1.66663 6.95262 2.64293 5.97631C3.61925 5 5.19059 5 8.33329 5H11.6666C14.8093 5 16.3807 5 17.357 5.97631C18.3333 6.95262 18.3333 8.524 18.3333 11.6667C18.3333 14.8093 18.3333 16.3807 17.357 17.357C16.3807 18.3333 14.8093 18.3333 11.6666 18.3333H8.33329C5.19059 18.3333 3.61925 18.3333 2.64293 17.357C1.66663 16.3807 1.66663 14.8093 1.66663 11.6667Z" stroke="#595555" stroke-width="1.5"/>
<path d="M13.3333 5.00033C13.3333 3.42898 13.3333 2.6433 12.8451 2.15515C12.357 1.66699 11.5713 1.66699 9.99996 1.66699C8.42863 1.66699 7.64293 1.66699 7.15478 2.15515C6.66663 2.6433 6.66663 3.42898 6.66663 5.00033" stroke="#595555" stroke-width="1.5"/>
<path d="M10 14.4441C10.9205 14.4441 11.6667 13.8223 11.6667 13.0553C11.6667 12.2882 10.9205 11.6663 10 11.6663C9.07954 11.6663 8.33337 11.0445 8.33337 10.2774C8.33337 9.51042 9.07954 8.88859 10 8.88859M10 14.4441C9.07954 14.4441 8.33337 13.8223 8.33337 13.0553M10 14.4441V14.9997M10 8.88859V8.33301M10 8.88859C10.9205 8.88859 11.6667 9.51042 11.6667 10.2774" stroke="#595555" stroke-width="1.5" stroke-linecap="round"/>
</g>
<defs>
<clipPath id="clip0_401_5475">
<rect width="20" height="20" fill="white"/>
</clipPath>
</defs>
</svg>
