<svg width="24" height="23" viewBox="0 0 24 23" fill="none" xmlns="http://www.w3.org/2000/svg">
<path opacity="0.4" d="M7.37 21.0827H16.62C19.31 21.0827 21.49 18.9935 21.49 16.4156V8.0206C21.49 5.44268 19.31 3.35352 16.62 3.35352H7.37C4.68 3.35352 2.5 5.44268 2.5 8.0206V16.406C2.5 18.9935 4.68 21.0827 7.37 21.0827Z" fill="#2CA9BC"/>
<path d="M8.28906 6.02727C7.86906 6.02727 7.53906 5.70143 7.53906 5.30852V2.63477C7.53906 2.24185 7.86906 1.91602 8.28906 1.91602C8.70906 1.91602 9.03906 2.24185 9.03906 2.63477V5.29893C9.03906 5.70143 8.70906 6.02727 8.28906 6.02727Z" fill="#2CA9BC"/>
<path d="M15.7109 6.02727C15.2909 6.02727 14.9609 5.70143 14.9609 5.30852V2.63477C14.9609 2.23227 15.3009 1.91602 15.7109 1.91602C16.1309 1.91602 16.4609 2.24185 16.4609 2.63477V5.29893C16.4609 5.70143 16.1309 6.02727 15.7109 6.02727Z" fill="#2CA9BC"/>
<path d="M14.7794 13.1387H7.35937C6.93937 13.1387 6.60938 12.8128 6.60938 12.4199C6.60938 12.027 6.94937 11.7012 7.35937 11.7012H14.7794C15.1994 11.7012 15.5294 12.027 15.5294 12.4199C15.5294 12.8128 15.1994 13.1387 14.7794 13.1387Z" fill="#2CA9BC"/>
<path d="M11.9994 16.6934H7.35938C6.93938 16.6934 6.60938 16.3675 6.60938 15.9746C6.60938 15.5721 6.94938 15.2559 7.35938 15.2559H11.9994C12.4194 15.2559 12.7494 15.5817 12.7494 15.9746C12.7494 16.3675 12.4194 16.6934 11.9994 16.6934Z" fill="#2CA9BC"/>
</svg>
