<svg width="26" height="23" viewBox="0 0 26 23" fill="none" xmlns="http://www.w3.org/2000/svg">
<path d="M13 14.6478C12.2874 14.6479 11.5882 14.4614 10.9771 14.1085L1 8.35216V7.25154C1.01196 6.70166 1.24721 6.1782 1.65528 5.79343C2.06336 5.40867 2.61176 5.19324 3.18286 5.19336H22.8171C23.3961 5.19336 23.9513 5.41484 24.3607 5.80908C24.77 6.20332 25 6.73802 25 7.29556V8.39619L15.0229 14.1525C14.4072 14.4901 13.7083 14.6612 13 14.6478Z" stroke="#020202" stroke-width="2" stroke-miterlimit="10"/>
<path d="M13 13.6025V15.7047" stroke="#020202" stroke-width="2" stroke-miterlimit="10" stroke-linecap="square"/>
<path d="M17.3657 5.1934H8.63428L9.73142 1H16.2686L17.3657 5.1934Z" stroke="#020202" stroke-width="2" stroke-miterlimit="10" stroke-linecap="square"/>
<path d="M22.8171 5.19336H3.18286C1.9773 5.19336 1 6.13455 1 7.29556V19.8978C1 21.0588 1.9773 22 3.18286 22H22.8171C24.0227 22 25 21.0588 25 19.8978V7.29556C25 6.13455 24.0227 5.19336 22.8171 5.19336Z" stroke="#020202" stroke-width="2" stroke-miterlimit="10"/>
</svg>
