<svg width="17" height="16" viewBox="0 0 17 16" fill="none" xmlns="http://www.w3.org/2000/svg">
<path d="M6.42589 0.142578C6.00222 0.142578 5.61519 0.296717 5.30381 0.59375C4.99243 0.890443 4.74974 1.36989 4.74974 1.92578C4.74974 1.94862 4.75596 1.96955 4.75671 1.99219H0.662191C0.317192 1.99219 0.0868589 2.25278 0.052369 2.63867V4.89648L6.20809 7.50781C6.47801 6.92784 7.00646 6.52652 7.61939 6.51367C7.62988 6.50989 7.63843 6.50586 7.64901 6.50586H8.37383C8.38577 6.50586 8.39688 6.51367 8.40868 6.51367C9.02081 6.52879 9.54816 6.93099 9.8165 7.51172L16.028 4.75586V2.67578C16.0125 2.26956 15.7646 1.99219 15.4042 1.99219H11.3132C11.3139 1.96955 11.3201 1.94862 11.3201 1.92578C11.3201 1.36989 11.0774 0.89067 10.7661 0.59375C10.4547 0.297057 10.0677 0.142578 9.64401 0.142578H6.42589ZM6.42589 1.49414H9.64401C9.87183 1.49414 10.0592 1.59289 10.1667 1.69531C10.2742 1.79774 10.2887 1.8672 10.2887 1.92578C10.2887 1.95076 10.2795 1.97015 10.2765 1.99219C10.5854 1.99236 10.7643 1.99184 11.1825 1.99219C11.0843 2.18359 10.9424 2.35097 10.773 2.47461C10.4589 2.70365 10.0677 2.81445 9.64401 2.81445H6.42589C6.00218 2.81445 5.61099 2.70403 5.29684 2.47461C5.12754 2.35103 4.98555 2.18361 4.88739 1.99219C5.40938 1.99219 5.41062 1.99227 5.79341 1.99219C5.79034 1.97014 5.78122 1.95068 5.78122 1.92578C5.78122 1.8672 5.79575 1.79774 5.90318 1.69531C6.01063 1.59289 6.19802 1.49414 6.42589 1.49414ZM16.0332 5.96875L10.0082 8.64453V9.22656C10.0082 10.2425 9.26947 11.0801 8.37209 11.0801H7.64901C6.75163 11.0801 6.01469 10.2425 6.01469 9.22656V8.64062L0.0332031 6.09766V14.8789C0.0332031 15.2266 0.311673 15.5977 0.660449 15.5977H15.406C15.7547 15.5977 16.0332 15.2264 16.0332 14.8789V5.96875ZM7.64901 7.63867V7.64062C7.59189 7.64062 7.54297 7.66054 7.4922 7.67188C7.46405 7.67943 7.43284 7.67434 7.40683 7.68945C7.19169 7.78356 7.05161 8.00576 7.03048 8.29883C7.02774 8.33519 7.0219 8.37116 7.01306 8.40625V9.23047C7.01306 9.65238 7.27639 9.94922 7.64901 9.94922H8.37209C8.74471 9.94922 9.00805 9.65241 9.00805 9.23047V8.4082C9.00011 8.37496 8.99486 8.34096 8.99237 8.30664C8.97362 8.00844 8.83554 7.78334 8.61776 7.68945C8.54517 7.65922 8.46229 7.63867 8.37383 7.63867H7.64901Z" fill="#FA8D1D"/>
</svg>
