<svg width="20" height="20" viewBox="0 0 20 20" fill="none" xmlns="http://www.w3.org/2000/svg">
<g clip-path="url(#clip0_1139_3034)">
<path d="M10.5424 10.5651C10.5449 10.5625 10.547 10.5604 10.5496 10.5579V10.5575C10.5619 10.5452 10.5733 10.5329 10.5848 10.5197C10.5869 10.5176 10.589 10.5151 10.5907 10.5125C10.6021 10.4998 10.6127 10.4863 10.6229 10.4727C10.6462 10.4414 10.6674 10.4083 10.686 10.3736C10.6911 10.3642 10.6958 10.3545 10.7004 10.3447C10.7059 10.3333 10.711 10.3219 10.7161 10.3104C10.7259 10.2871 10.7348 10.2634 10.7424 10.2388C10.7462 10.2265 10.7496 10.2142 10.7526 10.2019C10.7615 10.1676 10.7682 10.132 10.772 10.0956C10.7729 10.0897 10.7737 10.0833 10.7742 10.0769C10.7763 10.0545 10.7771 10.0312 10.7771 10.0079V7.21127C10.7771 6.78203 10.4293 6.43415 10 6.43415C9.78561 6.43415 9.59154 6.52101 9.45086 6.66169C9.31018 6.80237 9.22332 6.99686 9.22332 7.21127V9.23118H6.25722C5.82798 9.23118 5.4801 9.57906 5.4801 10.0083C5.4801 10.4375 5.82798 10.7854 6.25722 10.7854H10C10.211 10.7854 10.4026 10.7015 10.5424 10.5651ZM2.45764 9.9994C2.45764 5.83373 5.83434 2.45703 10 2.45703C14.1657 2.45703 17.5424 5.83373 17.5424 9.9994C17.5424 14.1651 14.1657 17.5418 10 17.5418C5.83434 17.5418 2.45764 14.1651 2.45764 9.9994Z" fill="#8ECAC1"/>
<path d="M9.99998 0.423828C15.289 0.423828 19.5762 4.71112 19.5762 10.0001C19.5762 15.2891 15.289 19.5764 9.99998 19.5764C4.71099 19.5764 0.423706 15.2891 0.423706 10.0001C0.423706 4.71112 4.71099 0.423828 9.99998 0.423828ZM17.5424 10.0001C17.5424 5.83442 14.1657 2.45773 9.99998 2.45773C5.8343 2.45773 2.4576 5.83442 2.4576 10.0001C2.4576 14.1658 5.8343 17.5425 9.99998 17.5425C14.1657 17.5425 17.5424 14.1658 17.5424 10.0001Z" fill="#8ECAC1"/>
<path d="M10.7771 7.21267V10.0093C10.7771 10.0326 10.7762 10.0559 10.7741 10.0783C10.7737 10.0847 10.7728 10.0906 10.772 10.097C10.7682 10.1334 10.7614 10.169 10.7525 10.2033C10.7495 10.2156 10.7461 10.2279 10.7423 10.2402C10.7347 10.2648 10.7258 10.2885 10.7161 10.3118C10.711 10.3233 10.7059 10.3347 10.7004 10.3461C10.6957 10.3559 10.6911 10.3656 10.686 10.375C10.6673 10.4097 10.6461 10.4428 10.6228 10.4741C10.6127 10.4877 10.6021 10.5012 10.5906 10.5139C10.5889 10.5165 10.5868 10.519 10.5847 10.5211C10.5733 10.5343 10.5618 10.5466 10.5495 10.5589C10.547 10.5614 10.5445 10.5639 10.5419 10.5661C10.4021 10.7025 10.2106 10.7864 9.99996 10.7864C9.57115 10.7864 9.22327 10.4385 9.22327 10.0093V9.23258V7.21267C9.22327 6.99826 9.31013 6.80377 9.45081 6.66309C9.59149 6.52241 9.78555 6.43555 9.99996 6.43555C10.4292 6.43555 10.7771 6.78343 10.7771 7.21267Z" fill="white"/>
<path d="M10.542 10.5659L10.5424 10.5663C10.4026 10.7028 10.211 10.7867 10 10.7867H6.25722C5.82798 10.7867 5.4801 10.4388 5.4801 10.0095C5.4801 9.5803 5.82798 9.23242 6.25722 9.23242H9.22332V10.0091C9.22332 10.4384 9.5712 10.7862 10 10.7862C10.2106 10.7862 10.4021 10.7023 10.542 10.5659Z" fill="white"/>
<path d="M10 20C7.32881 20 4.81759 18.9598 2.9289 17.0711C1.04017 15.1824 0 12.6712 0 10C0 7.32881 1.04017 4.81759 2.9289 2.92886C4.81759 1.04017 7.32881 0 10 0C12.6712 0 15.1824 1.04017 17.0711 2.92886C18.9598 4.81759 20 7.32881 20 10C20 12.6712 18.9598 15.1824 17.0711 17.0711C15.1824 18.9598 12.6712 20 10 20ZM10 0.847458C7.55521 0.847458 5.25678 1.79949 3.52814 3.52814C1.79945 5.25678 0.847458 7.55521 0.847458 10C0.847458 12.4448 1.79945 14.7432 3.52814 16.4719C5.25678 18.2005 7.55521 19.1525 10 19.1525C12.4448 19.1525 14.7432 18.2005 16.4719 16.4719C18.2005 14.7432 19.1525 12.4448 19.1525 10C19.1525 7.55521 18.2005 5.25678 16.4719 3.52814C14.7432 1.79949 12.4448 0.847458 10 0.847458Z" fill="#5E2A41"/>
<path d="M10.7724 10.4992C10.7542 10.4992 10.7358 10.498 10.7173 10.4954C10.4971 10.4652 10.343 10.2625 10.3731 10.0423C10.3917 9.83421 10.5665 9.67578 10.7737 9.67578C10.7825 9.67578 10.7913 9.67608 10.8001 9.67663C11.022 9.69108 11.1902 9.88256 11.1758 10.1044C11.1747 10.1204 11.173 10.1354 11.1709 10.1512C11.1431 10.3528 10.9705 10.4992 10.7724 10.4992Z" fill="#5E2A41"/>
<path d="M10.7424 10.643C10.7026 10.643 10.6621 10.6369 10.622 10.6244C10.4098 10.558 10.2917 10.3321 10.3581 10.12C10.3591 10.1166 10.3601 10.1132 10.3609 10.1098C10.4126 9.89355 10.6296 9.76016 10.846 9.81194C11.0622 9.86363 11.1956 10.0808 11.1439 10.297C11.1388 10.3182 11.133 10.3394 11.1264 10.3606C11.0725 10.5327 10.9137 10.643 10.7424 10.643Z" fill="#5E2A41"/>
<path d="M10.6857 10.7766C10.6209 10.7766 10.5552 10.7609 10.4942 10.7279C10.299 10.622 10.2264 10.3781 10.3318 10.1829L10.3372 10.1717C10.3413 10.1631 10.3448 10.1553 10.3482 10.1475C10.4385 9.94429 10.6764 9.85273 10.8795 9.94294C11.0827 10.0332 11.1743 10.271 11.084 10.4742C11.0773 10.4893 11.0706 10.5043 11.0634 10.5194C11.0554 10.5359 11.0479 10.5512 11.0399 10.5659C10.967 10.7003 10.8286 10.7766 10.6857 10.7766Z" fill="#5E2A41"/>
<path d="M10.5905 10.9153C10.4948 10.9153 10.3989 10.8814 10.322 10.8125C10.1564 10.6642 10.1425 10.4097 10.2909 10.2441C10.2944 10.24 10.2976 10.2357 10.3008 10.2314C10.4342 10.0535 10.6866 10.0175 10.8644 10.1509C11.0422 10.2843 11.0783 10.5366 10.9448 10.7144C10.9326 10.7308 10.9136 10.7555 10.8904 10.7814C10.811 10.8701 10.7009 10.9153 10.5905 10.9153Z" fill="#5E2A41"/>
<path d="M9.99997 11.1894H6.25718C5.60671 11.1894 5.07751 10.6602 5.07751 10.0097C5.07751 9.35927 5.60671 8.83008 6.25718 8.83008H9.22328C9.44561 8.83008 9.62582 9.01029 9.62582 9.23262C9.62582 9.45495 9.44561 9.63516 9.22328 9.63516H6.25718C6.05065 9.63516 5.8826 9.80321 5.8826 10.0097C5.8826 10.2163 6.05061 10.3843 6.25718 10.3843H9.99997C10.0962 10.3843 10.187 10.3484 10.2564 10.283C10.2592 10.28 10.262 10.2771 10.2649 10.2742C10.2706 10.2686 10.2759 10.2629 10.2811 10.2569C10.4271 10.0892 10.6813 10.0716 10.849 10.2176C11.0167 10.3636 11.0343 10.6178 10.8883 10.7855C10.8748 10.801 10.8612 10.8158 10.8471 10.8304C10.8437 10.8342 10.8401 10.838 10.8365 10.8416L10.8247 10.8534C10.6023 11.0705 10.3098 11.1894 9.99997 11.1894Z" fill="#5E2A41"/>
<path d="M10 4.05354C9.766 4.05354 9.57629 3.8638 9.57629 3.62981V2.45693C9.57629 2.22295 9.766 2.0332 10 2.0332C10.234 2.0332 10.4238 2.22295 10.4238 2.45693V3.62981C10.4238 3.8638 10.234 4.05354 10 4.05354Z" fill="#5E2A41"/>
<path d="M10 17.9657C9.766 17.9657 9.57629 17.7759 9.57629 17.5419V16.369C9.57629 16.1351 9.766 15.9453 10 15.9453C10.234 15.9453 10.4238 16.1351 10.4238 16.369V17.5419C10.4238 17.7759 10.234 17.9657 10 17.9657Z" fill="#5E2A41"/>
<path d="M17.5424 10.4236H16.3695C16.1355 10.4236 15.9458 10.2339 15.9458 9.9999C15.9458 9.76588 16.1355 9.57617 16.3695 9.57617H17.5424C17.7764 9.57617 17.9661 9.76588 17.9661 9.9999C17.9661 10.2339 17.7764 10.4236 17.5424 10.4236Z" fill="#5E2A41"/>
<path d="M3.63055 10.4236H2.45766C2.22364 10.4236 2.03394 10.2339 2.03394 9.9999C2.03394 9.76588 2.22364 9.57617 2.45766 9.57617H3.63055C3.86457 9.57617 4.05427 9.76588 4.05427 9.9999C4.05427 10.2339 3.86457 10.4236 3.63055 10.4236Z" fill="#5E2A41"/>
<path d="M13.1844 4.90826C13.1125 4.90826 13.0397 4.88991 12.9729 4.85139C12.7703 4.73436 12.7008 4.47525 12.8178 4.27258L13.4043 3.25686C13.5213 3.05419 13.7804 2.98474 13.9831 3.10178C14.1858 3.21881 14.2552 3.47792 14.1382 3.68059L13.5517 4.69631C13.4733 4.83224 13.3308 4.90826 13.1844 4.90826Z" fill="#5E2A41"/>
<path d="M6.22848 16.9551C6.15657 16.9551 6.08373 16.9368 6.01699 16.8982C5.81432 16.7812 5.74487 16.5221 5.86191 16.3194L6.44835 15.3037C6.56538 15.1011 6.82458 15.0316 7.02716 15.1486C7.22983 15.2657 7.29928 15.5248 7.18225 15.7274L6.59581 16.7432C6.51733 16.8791 6.37492 16.9551 6.22848 16.9551Z" fill="#5E2A41"/>
<path d="M16.5314 14.1958C16.4595 14.1958 16.3867 14.1774 16.3199 14.1389L15.3042 13.5525C15.1016 13.4354 15.0321 13.1763 15.1491 12.9737C15.2662 12.771 15.5252 12.7015 15.728 12.8186L16.7437 13.405C16.9463 13.522 17.0158 13.7812 16.8988 13.9838C16.8202 14.1198 16.6778 14.1958 16.5314 14.1958Z" fill="#5E2A41"/>
<path d="M4.48351 7.2387C4.41161 7.2387 4.33877 7.22035 4.27203 7.18183L3.25635 6.59539C3.05368 6.47836 2.98428 6.21921 3.10127 6.01658C3.2183 5.81395 3.47745 5.74455 3.68012 5.86149L4.6958 6.44793C4.89847 6.56497 4.96788 6.82412 4.85089 7.02675C4.77241 7.16268 4.63 7.2387 4.48351 7.2387Z" fill="#5E2A41"/>
<path d="M15.5165 7.23872C15.37 7.23872 15.2277 7.1627 15.1491 7.02677C15.0321 6.8241 15.1016 6.56499 15.3042 6.44795L16.3199 5.86151C16.5226 5.74452 16.7817 5.81397 16.8988 6.0166C17.0158 6.21927 16.9463 6.47838 16.7437 6.59541L15.728 7.18185C15.6612 7.22037 15.5884 7.23872 15.5165 7.23872Z" fill="#5E2A41"/>
<path d="M3.46866 14.1958C3.32222 14.1958 3.1798 14.1198 3.10129 13.9838C2.98425 13.7812 3.0537 13.5221 3.25637 13.405L4.27205 12.8186C4.47468 12.7015 4.73387 12.771 4.85091 12.9737C4.96794 13.1763 4.89849 13.4355 4.69582 13.5525L3.68014 14.1389C3.61345 14.1774 3.54057 14.1958 3.46866 14.1958Z" fill="#5E2A41"/>
<path d="M13.7717 16.9551C13.6252 16.9551 13.4828 16.879 13.4043 16.7431L12.8178 15.7274C12.7008 15.5248 12.7703 15.2657 12.9729 15.1486C13.1756 15.0316 13.4347 15.1011 13.5517 15.3037L14.1382 16.3194C14.2552 16.5221 14.1858 16.7812 13.9831 16.8982C13.9164 16.9368 13.8435 16.9551 13.7717 16.9551Z" fill="#5E2A41"/>
<path d="M6.81568 4.90822C6.66924 4.90822 6.52682 4.8322 6.44835 4.69627L5.86191 3.68059C5.74487 3.47792 5.81432 3.21881 6.01699 3.10178C6.21966 2.98474 6.47881 3.05419 6.59581 3.25686L7.18225 4.27258C7.29928 4.47525 7.22983 4.7344 7.02716 4.85139C6.96042 4.88991 6.88754 4.90822 6.81568 4.90822Z" fill="#5E2A41"/>
<path d="M10 17.9654C5.60749 17.9654 2.03394 14.3918 2.03394 9.99931C2.03394 5.6068 5.60749 2.0332 10 2.0332C14.3925 2.0332 17.9661 5.6068 17.9661 9.99931C17.9661 14.3918 14.3925 17.9654 10 17.9654ZM10 2.88066C6.07478 2.88066 2.88139 6.07405 2.88139 9.99931C2.88139 13.9246 6.07478 17.1179 10 17.1179C13.9253 17.1179 17.1187 13.9246 17.1187 9.99931C17.1187 6.07405 13.9253 2.88066 10 2.88066Z" fill="#5E2A41"/>
<path d="M13.0105 13.4357C12.9075 13.4357 12.8045 13.3964 12.7259 13.3178L10.2577 10.8496C10.1005 10.6924 10.1002 10.4372 10.2574 10.2801C10.4147 10.1229 10.6693 10.1227 10.8266 10.2799L13.2952 12.7485C13.4524 12.9057 13.4524 13.1606 13.2952 13.3178C13.2166 13.3964 13.1135 13.4357 13.0105 13.4357Z" fill="#5E2A41"/>
<path d="M10 11.1872C9.34978 11.1872 8.8208 10.658 8.8208 10.0075V7.21091C8.8208 6.8957 8.94351 6.59943 9.16627 6.37667C9.38894 6.15392 9.68508 6.03125 10 6.03125C10.6505 6.03125 11.1797 6.56044 11.1797 7.21091V10.0075C11.1797 10.0442 11.1783 10.0779 11.1753 10.1103C11.1744 10.122 11.173 10.1336 11.1716 10.1448C11.1658 10.1957 11.1564 10.2475 11.1431 10.299C11.1383 10.3189 11.1327 10.3388 11.1265 10.3587C11.116 10.3927 11.1031 10.4279 11.0876 10.4651C11.0864 10.4679 11.0852 10.4707 11.084 10.4734C11.0773 10.4885 11.0706 10.5035 11.0633 10.5186C11.0554 10.5351 11.0479 10.5504 11.0399 10.5651C11.0133 10.6146 10.9814 10.6647 10.9461 10.7124C10.9349 10.7272 10.92 10.7468 10.9019 10.7678C10.8958 10.7754 10.8896 10.7827 10.883 10.7898C10.8672 10.8077 10.8512 10.8248 10.8342 10.8418C10.8289 10.8472 10.8228 10.8531 10.8163 10.859C10.5959 11.0707 10.3064 11.1872 10 11.1872ZM10 6.83633C9.90017 6.83633 9.80622 6.87528 9.73555 6.94595C9.66483 7.01667 9.62589 7.11078 9.62589 7.21091V10.0075C9.62589 10.214 9.79372 10.3821 10 10.3821C10.0982 10.3821 10.1909 10.3445 10.2608 10.2762C10.2631 10.274 10.2654 10.2718 10.2677 10.2697C10.2719 10.2653 10.2754 10.2616 10.2787 10.2579C10.2827 10.2531 10.2867 10.2482 10.2909 10.2436C10.2945 10.2396 10.2977 10.2351 10.3009 10.2308C10.3118 10.216 10.3225 10.1994 10.3314 10.1828L10.3372 10.171C10.3405 10.1641 10.3433 10.1577 10.3461 10.1514C10.3511 10.1395 10.3549 10.1289 10.3579 10.1194C10.3593 10.1148 10.3603 10.1114 10.3611 10.108C10.3616 10.1056 10.3622 10.1032 10.3629 10.1007C10.3672 10.084 10.3701 10.0682 10.3717 10.0535C10.3721 10.0491 10.3726 10.0449 10.3732 10.0406C10.3733 10.0398 10.3734 10.039 10.3734 10.0382C10.374 10.0328 10.3746 10.023 10.3746 10.0075V7.21091C10.3746 7.00439 10.2066 6.83633 10 6.83633Z" fill="#5E2A41"/>
</g>
<defs>
<clipPath id="clip0_1139_3034">
<rect width="20" height="20" fill="white"/>
</clipPath>
</defs>
</svg>
