<svg width="75" height="75" viewBox="0 0 75 75" fill="none" xmlns="http://www.w3.org/2000/svg">
<rect width="75" height="75" rx="13" fill="white"/>
<path d="M38.6874 22.4083C40.8964 22.4469 42.7123 21.0421 42.7432 19.2708C42.7741 17.4994 41.0084 16.0322 38.7994 15.9936C36.5903 15.9551 34.7745 17.3598 34.7436 19.1312C34.7127 20.9025 36.4784 22.3697 38.6874 22.4083Z" fill="black"/>
<path d="M56.2498 43.7164C55.4808 43.703 54.7409 43.7971 54.0507 43.9799L53.739 43.1993C54.3743 43.0532 55.0468 42.9785 55.742 42.9871C56.5866 42.9975 57.3256 42.5003 57.3898 41.8253C57.4599 41.0875 56.7403 40.4612 55.8312 40.4453C54.7667 40.4268 53.738 40.5422 52.7696 40.7716L50.7006 35.5902L51.6716 35.6071C52.0466 36.2795 52.7909 36.7938 53.7001 36.9784C54.046 37.0487 54.3823 36.843 54.3873 36.5564L54.4543 32.717C54.4593 32.4323 54.1332 32.213 53.7861 32.2706C52.8693 32.4227 52.1059 32.9112 51.7071 33.571L51.2419 33.5629C50.9488 33.8546 50.587 34.0983 50.1774 34.2795C49.1333 34.7415 48.2557 34.6353 47.6432 34.596C47.784 34.9487 48.6197 37.0415 48.7991 37.4909C48.6185 37.6211 49.1789 36.9671 41.5111 46.2976L41.4398 46.2964C41.16 47.0101 40.7645 47.5846 39.9145 48.0651C39.7599 48.1524 39.597 48.2299 39.4284 48.2981L41.4961 48.3341C42.3494 48.349 43.1497 48.0133 43.6178 47.444L49.7806 39.949L50.4385 41.5965C47.596 42.9742 45.6719 45.455 45.6034 48.3153C45.5868 49.0083 46.246 49.6161 47.1094 49.6551C48.0102 49.6958 48.7607 49.1303 48.7732 48.4133C48.8037 46.6632 49.8481 45.1187 51.4497 44.1291L51.8009 45.0084C50.3837 46 49.5022 47.4744 49.5597 49.1203C49.6549 51.8417 52.3622 54.1028 55.75 54.2891C59.5293 54.4969 62.7048 52.1254 62.7572 49.1236C62.8081 46.2057 59.8889 43.7799 56.2498 43.7164ZM56.1242 50.9107C54.8162 50.8879 53.7669 50.016 53.7852 48.9671C53.8035 47.9182 54.8826 47.0835 56.1906 47.1063C57.4987 47.1292 58.5479 48.001 58.5296 49.0499C58.5113 50.0988 57.4323 50.9335 56.1242 50.9107Z" fill="black"/>
<path d="M43.0453 37.5382C43.3855 36.6706 42.8333 35.7341 41.7779 35.389L39.3317 34.5891L39.4886 34.0076C38.7536 33.794 38.2009 33.2886 38.0326 32.6789L36.6975 27.8225L39.6104 31.9734C39.909 32.399 40.4524 32.678 41.0577 32.7169L48.2797 33.1799C49.2797 33.2436 50.1458 32.6461 50.2178 31.8469C50.2899 31.0467 49.539 30.3462 48.5406 30.2821L42.2877 29.8813L39.8528 26.4118L41.2487 27.4827L41.4298 26.8116C41.7449 25.6436 40.8177 24.4847 39.359 24.2229L34.6487 23.3776C33.1899 23.1158 31.7519 23.8504 31.4368 25.0182L29.8135 31.0352L29.915 25.2189C29.9221 24.8139 29.5183 24.4783 29.0132 24.4695L18.5827 24.2875C18.0775 24.2786 17.6623 24.5999 17.6552 25.0049L17.4689 35.6776L16.8347 35.6665C15.8132 35.6487 14.9736 36.2982 14.9593 37.1173C14.945 37.9364 15.7615 38.6148 16.783 38.6327L24.3926 38.7655L24.3531 41.0257C21.2276 41.9143 18.8534 44.0786 18.2177 46.7564C18.0742 47.3609 18.6474 47.9276 19.4169 47.941L21.0351 47.9693C21.0185 48.1098 21.0069 48.2515 21.0044 48.3951C20.9535 51.3131 23.8726 53.7389 27.5118 53.8024C31.1508 53.8659 34.153 51.5436 34.2039 48.6255C34.2064 48.4846 34.1998 48.3452 34.1887 48.2068L35.7543 48.2342C34.1496 47.5167 33.3423 45.9703 33.9059 44.5324L36.0866 38.9696L37.9021 39.0013L35.5661 44.9603C35.2066 45.8771 35.8444 46.8599 36.9904 47.1553C38.1366 47.4507 39.3571 46.9468 39.7164 46.03L43.0453 37.5382ZM27.5708 50.4126C26.2628 50.3898 25.2135 49.5179 25.2319 48.469C25.2344 48.3225 25.2584 48.1804 25.3001 48.0439L29.9229 48.1246C29.9598 48.2624 29.9788 48.4052 29.9762 48.5518C29.9579 49.6007 28.8788 50.4354 27.5708 50.4126ZM29.7288 35.8917L29.7539 34.4543C30.0492 35.0194 30.5133 35.5227 31.1071 35.9158L29.7288 35.8917Z" fill="black"/>
</svg>
