<svg width="70" height="66" viewBox="0 0 70 66" fill="none" xmlns="http://www.w3.org/2000/svg">
<path d="M41.3195 25.2641L37.9167 22.9308C37.4306 22.6391 36.75 22.7363 36.4584 23.3196L35.3889 25.2641" fill="#FA8D1D"/>
<path d="M63 39.4583L61.9306 38.875C61.5417 38.6806 61.3472 38.2917 61.4444 37.9028C61.7361 36.0556 61.9306 29.6389 52.0139 26.7222C51.8194 26.625 51.625 26.625 51.4306 26.625L32.375 26.7222C31.9861 26.7222 31.5972 26.8194 31.3056 27.0139L21.2917 33.7222C21.0972 33.8194 20.9028 33.9167 20.7083 33.9167C18.8611 33.8194 17.1111 34.0139 15.2639 34.3056C10.0139 35.375 7.875 38.1944 7.09722 39.6528C6.90278 39.9444 6.90278 40.3333 6.90278 40.625C7 42.9583 5.44445 45.5833 7.77778 47.7222L26.6389 47.625L46.4722 47.1389L62.125 46.9444C63 46.8472 64.4583 45.5833 64.8472 44.8056C66.5 42.1806 63.1944 39.5556 63 39.4583Z" fill="#FEBB1B"/>
<path d="M16.8194 41.792C14.6805 41.792 12.9305 43.542 12.9305 45.6809C12.9305 47.8198 14.6805 49.5698 16.8194 49.5698C18.9583 49.5698 20.7083 47.8198 20.7083 45.6809C20.7083 43.542 18.9583 41.792 16.8194 41.792Z" fill="#9B9B9A"/>
<path d="M55.5139 41.792C53.375 41.792 51.625 43.542 51.625 45.6809C51.625 47.8198 53.375 49.5698 55.5139 49.5698C57.6528 49.5698 59.4028 47.8198 59.4028 45.6809C59.4028 43.542 57.6528 41.792 55.5139 41.792Z" fill="#9B9B9A"/>
<path d="M54.5417 34.889V30.7084C54.5417 29.8334 53.7639 29.0557 52.8889 29.0557H32.2778C32.1806 29.0557 32.0834 29.0557 32.0834 29.1529L23.7223 34.6946C23.5278 34.7918 24.1112 35.0834 24.2084 35.2779C24.3056 35.3751 24.4028 35.4723 24.5 35.4723C29.9445 35.4723 50.9445 35.2779 54.0556 35.3751C54.3473 35.3751 54.5417 35.1807 54.5417 34.889C54.5417 34.9862 54.5417 34.9862 54.5417 34.889Z" fill="#3F3F3F"/>
<path d="M8.6528 36.0557L12.5417 37.6112L10.5 40.4307L5.63892 40.5279L8.6528 36.0557Z" fill="#D0CFCE"/>
<path d="M41.3195 25.2641L37.9167 22.9308C37.4306 22.6391 36.75 22.7363 36.4584 23.3196L35.3889 25.2641" stroke="black" stroke-width="2" stroke-miterlimit="10" stroke-linecap="round" stroke-linejoin="round"/>
<path d="M46.2778 46.2637L26.25 46.6526" stroke="black" stroke-width="2" stroke-linecap="round" stroke-linejoin="round"/>
<path d="M7.87504 46.6528C7.00004 46.4583 6.22226 46.1667 6.12504 45.6806C6.02782 44.7083 5.83337 41.9861 5.83337 40.7222C5.83337 40.2361 5.9306 39.6528 6.22226 39.2639C7.29171 37.3194 10.8889 32.6528 20.7084 33.0417L30.7223 26.3333C31.2084 26.0417 31.7917 25.8472 32.2778 25.8472L51.3334 25.75C51.625 25.75 51.9167 25.75 52.2084 25.8472C54.3473 26.4306 63.5834 29.7361 62.3195 38.0972L63.3889 38.6806C63.875 38.875 64.2639 39.3611 64.3611 39.8472C64.75 41.2083 64.6528 42.6667 64.1667 44.0278" stroke="black" stroke-width="2" stroke-linecap="round" stroke-linejoin="round"/>
<path d="M24.2084 35.4728L53.5695 35.2783V30.9033" stroke="black" stroke-width="2" stroke-linecap="round" stroke-linejoin="round"/>
<path d="M16.8195 50.5416C19.5042 50.5416 21.6806 48.3652 21.6806 45.6804C21.6806 42.9957 19.5042 40.8193 16.8195 40.8193C14.1348 40.8193 11.9584 42.9957 11.9584 45.6804C11.9584 48.3652 14.1348 50.5416 16.8195 50.5416Z" stroke="black" stroke-width="2" stroke-linecap="round" stroke-linejoin="round"/>
<path d="M55.5139 50.5416C58.1987 50.5416 60.3751 48.3652 60.3751 45.6804C60.3751 42.9957 58.1987 40.8193 55.5139 40.8193C52.8292 40.8193 50.6528 42.9957 50.6528 45.6804C50.6528 48.3652 52.8292 50.5416 55.5139 50.5416Z" stroke="black" stroke-width="2" stroke-linecap="round" stroke-linejoin="round"/>
<path d="M11.9584 38.3887L10.2084 40.5276L6.61121 40.4303" stroke="black" stroke-width="2" stroke-linecap="round" stroke-linejoin="round"/>
<path d="M23.4305 38.875H48.7083" stroke="black" stroke-width="2" stroke-miterlimit="10" stroke-linecap="round" stroke-linejoin="round"/>
<path d="M23.4305 38.875H48.7083" stroke="#FA8D1D" stroke-width="2" stroke-miterlimit="10" stroke-linecap="round" stroke-linejoin="round"/>
</svg>
