<svg width="20" height="20" viewBox="0 0 20 20" fill="none" xmlns="http://www.w3.org/2000/svg">
<circle cx="9.64286" cy="9.64286" r="9.64286" fill="#FA8D1D"/>
<path d="M9.39281 14.2143C8.71618 13.7014 8.08899 13.1391 7.51782 12.5332C6.66068 11.6234 5.64282 10.2684 5.64282 8.97724C5.64245 8.31782 5.8622 7.67313 6.27426 7.12475C6.68633 6.57638 7.27218 6.14896 7.95767 5.8966C8.64317 5.64424 9.3975 5.57828 10.1252 5.70706C10.8529 5.83585 11.5212 6.15359 12.0457 6.62008C12.3948 6.929 12.6716 7.29639 12.8599 7.701C13.0482 8.1056 13.1444 8.53939 13.1428 8.97724C13.1428 10.2684 12.1249 11.6234 11.2678 12.5332C10.6966 13.139 10.0694 13.7014 9.39281 14.2143ZM9.39281 7.54894C8.96657 7.54894 8.55779 7.69943 8.25639 7.96728C7.955 8.23514 7.78567 8.59843 7.78567 8.97724C7.78567 9.35604 7.955 9.71934 8.25639 9.98719C8.55779 10.2551 8.96657 10.4055 9.39281 10.4055C9.81905 10.4055 10.2278 10.2551 10.5292 9.98719C10.8306 9.71934 11 9.35604 11 8.97724C11 8.59843 10.8306 8.23514 10.5292 7.96728C10.2278 7.69943 9.81905 7.54894 9.39281 7.54894Z" fill="white"/>
</svg>
